<svg width="360" height="975" xmlns="http://www.w3.org/2000/svg" xmlns:xlink="http://www.w3.org/1999/xlink">
    <defs>
        <path id="a" d="M0 0h360v975H0z"/>
    </defs>
    <g fill="none" fill-rule="evenodd">
        <mask id="b" fill="#fff">
            <use xlink:href="#a"/>
        </mask>
        <use fill="#F3F3F3" xlink:href="#a"/>
        <g mask="url(#b)" opacity=".428" stroke="#FFD300" stroke-linecap="round">
            <g transform="translate(181 -275)">
                <path d="M228 456c125.92 0 228-102.08 228-228S353.92 0 228 0 0 102.08 0 228s102.08 228 228 228z" stroke-width="3" stroke-dasharray="2,16"/>
                <path d="M227.5 422C334.92 422 422 334.92 422 227.5S334.92 33 227.5 33 33 120.08 33 227.5 120.08 422 227.5 422z" stroke-width="4" stroke-dasharray="2,12"/>
                <path d="M228 391c90.022 0 163-72.978 163-163S318.022 65 228 65 65 137.978 65 228s72.978 163 163 163z" stroke-width="5" stroke-dasharray="2,10"/>
                <circle stroke-width="6" cx="228" cy="228" r="131"/>
            </g>
        </g>
        <g mask="url(#b)" opacity=".428" stroke="#FFD300" stroke-linecap="round">
            <g transform="translate(-276 375)">
                <path d="M228 456c125.92 0 228-102.08 228-228S353.92 0 228 0 0 102.08 0 228s102.08 228 228 228z" stroke-width="3" stroke-dasharray="2,16"/>
                <path d="M227.5 422C334.92 422 422 334.92 422 227.5S334.92 33 227.5 33 33 120.08 33 227.5 120.08 422 227.5 422z" stroke-width="4" stroke-dasharray="2,12"/>
                <path d="M228 391c90.022 0 163-72.978 163-163S318.022 65 228 65 65 137.978 65 228s72.978 163 163 163z" stroke-width="5" stroke-dasharray="2,10"/>
                <circle stroke-width="6" cx="228" cy="228" r="131"/>
            </g>
        </g>
    </g>
</svg>
