<svg width="26" height="27" viewBox="0 0 26 27" xmlns="http://www.w3.org/2000/svg">
    <g fill="none" fill-rule="evenodd">
        <path d="M13 26.605c-7.179 0-13-5.956-13-13.303C0 5.956 5.822 0 13 0c7.18 0 13 5.956 13 13.302 0 7.347-5.82 13.303-13 13.303" fill="#0885AE"/>
        <g fill="#FFF">
            <path d="M13 15.116c-.813 0-1.476-.677-1.476-1.513V7.56c0-.84.661-1.513 1.477-1.513.814 0 1.477.677 1.477 1.513v6.043c0 .84-.661 1.513-1.477 1.513M13 20.558c-.976 0-1.772-.812-1.772-1.814 0-1 .794-1.814 1.773-1.814.977 0 1.773.813 1.773 1.814 0 1-.794 1.814-1.773 1.814"/>
        </g>
    </g>
</svg>
