<svg width="80" height="80" viewBox="0 0 80 80" xmlns="http://www.w3.org/2000/svg">
    <defs>
        <linearGradient x1=".18%" y1="99.606%" x2="99.705%" y2=".51%" id="f2yfmnghja">
            <stop stop-color="#009E62" offset="0%"/>
            <stop stop-color="#009E62" offset="23.46%"/>
            <stop stop-color="#95B849" offset="67.63%"/>
            <stop stop-color="#A7BC3C" offset="74.77%"/>
            <stop stop-color="#D7C51B" offset="89.08%"/>
            <stop stop-color="#FFCD00" offset="100%"/>
        </linearGradient>
    </defs>
    <path d="M40 80C17.942 80 0 62.057 0 40 0 17.942 17.942 0 40 0c22.057 0 40 17.942 40 40 0 22.057-17.943 40-40 40zm0-76.668C19.782 3.332 3.333 19.782 3.333 40S19.783 76.668 40 76.668c20.218 0 36.668-16.45 36.668-36.668S60.218 3.333 40 3.333zm-15 30c-2.758 0-5-2.242-5-5 0-2.757 2.242-5 5-5s5 2.243 5 5c0 2.758-2.242 5-5 5zm0-6.665a1.667 1.667 0 1 0 0 3.33 1.667 1.667 0 0 0 0-3.33zm30 6.666c-2.758 0-5-2.243-5-5 0-2.758 2.242-5 5-5s5 2.242 5 5c0 2.757-2.242 5-5 5zm0-6.665A1.667 1.667 0 1 0 55.003 30 1.667 1.667 0 0 0 55 26.667zM40 47.535c7.975 0 15.32 4.025 19.645 10.768.495.777.27 1.807-.505 2.305-.778.5-1.807.27-2.305-.505-3.712-5.78-10.005-9.233-16.837-9.233-6.833 0-13.125 3.455-16.833 9.233a1.663 1.663 0 0 1-2.305.505c-.78-.495-1-1.53-.505-2.305 4.32-6.743 11.665-10.768 19.643-10.768H40z" fill="url(#f2yfmnghja)" fill-rule="nonzero"/>
</svg>
