<svg width="680" height="408" viewBox="0 0 680 408" xmlns="http://www.w3.org/2000/svg" xmlns:xlink="http://www.w3.org/1999/xlink">
    <defs>
        <radialGradient cx="4628.8%" cy="825.384%" fx="4628.8%" fy="825.384%" r="9243.946%" gradientTransform="scale(1 .9799) rotate(28.18 45.95 8.338)" id="0nq9qm90vd">
            <stop stop-color="#FFF" offset="15%"/>
            <stop stop-color="#FFF" offset="46%"/>
            <stop stop-color="#FFF" offset="65%"/>
            <stop stop-color="#FFF" offset="76%"/>
            <stop stop-color="#FFF" offset="91%"/>
            <stop stop-color="#FFF" offset="100%"/>
        </radialGradient>
        <radialGradient cx="17248.419%" cy="7707.344%" fx="17248.419%" fy="7707.344%" r="28186.806%" gradientTransform="scale(1 .7688) rotate(28.18 126.312 88.662)" id="pjcvbkz6pe">
            <stop stop-color="#FFF" offset="15%"/>
            <stop stop-color="#FFF" offset="46%"/>
            <stop stop-color="#FFF" offset="65%"/>
            <stop stop-color="#FFF" offset="76%"/>
            <stop stop-color="#FFF" offset="91%"/>
            <stop stop-color="#FFF" offset="100%"/>
        </radialGradient>
        <radialGradient cx="2278.25%" cy="4835.467%" fx="2278.25%" fy="4835.467%" r="30558.667%" gradientTransform="scale(.5291 1) rotate(28.18 32.92 88.746)" id="tow4pgi4kf">
            <stop stop-color="#FFF" offset="0%"/>
            <stop stop-color="#FFF" offset="10%"/>
            <stop stop-color="#FFF" offset="24%"/>
            <stop stop-color="#FFF" offset="40%"/>
            <stop stop-color="#FFF" offset="42%"/>
            <stop stop-color="#FFF" offset="60%"/>
            <stop stop-color="#FFF" offset="86%"/>
            <stop stop-color="#FFF" offset="100%"/>
        </radialGradient>
        <linearGradient x1="50%" y1="58.33%" x2="100%" y2="41.67%" id="x54uh9x9pc">
            <stop stop-color="#007AA9" offset="0%"/>
            <stop stop-color="#008582" offset="100%"/>
        </linearGradient>
        <linearGradient x1="50%" y1="58.33%" x2="100%" y2="41.67%" id="caai5dohzg">
            <stop stop-color="#870419" offset="0%"/>
            <stop stop-color="#C40E23" offset="100%"/>
        </linearGradient>
        <path d="M4 0h672a4 4 0 0 1 4 4v404H0V4a4 4 0 0 1 4-4z" id="gb51vre6oa"/>
    </defs>
    <g fill="none" fill-rule="evenodd">
        <mask id="oarvqm054b" fill="#fff">
            <use xlink:href="#gb51vre6oa"/>
        </mask>
        <g mask="url(#oarvqm054b)">
            <path d="M257.088-70.821C224.488-14.89 119.314 2.123 82.69 30.806c-33.515 26.263-51.378 87-49.564 135.41 1.796 48.411 38.542 96.562 86.776 100.608 20.99 1.746 41.98-4.461 63.004-3.026 67.255 4.599 104.726 80.085 163.86 112.468 68.153 37.31 155.015 10.927 218.072-34.475 40.097-28.874 76.203-67.17 88.97-114.94 12.766-47.754-3.801-105.604-47.284-129.066C567.343 76.64 507.672 79.752 492.4 37.912c-10.677-29.254 10.14-59.839 14.822-90.631 7.325-48.255-29.351-96.268-75.84-111.015-46.49-14.748-89.074-17.29-123.332 17.445-15.98 16.2-39.51 55.792-50.963 75.468z" fill="#F5F8FA" fill-rule="nonzero"/>
        </g>
        <path d="m.003 132 68.502-36.481c27.653-14.464 32.039-52.243 8.434-72.656L35.038-13.372c-9.56-8.267-7.62-23.602 3.698-29.228l75.832-37.698a44.235 44.235 0 0 1 48.254 5.834l116.408 98.44c18.41 14.202 16.441 42.563-3.752 54.087L58.925 201.636c-25.563 14.587-30.017 49.605-8.92 70.127l36.872 35.87 54.396 52.915c14.484 14.089 36.672 16.574 53.912 6.037L404.95 238.383a44.234 44.234 0 0 1 46.58.275l25.108 15.755a44.232 44.232 0 0 0 46.146.538l175.75-104.66c17.826-10.617 18.301-36.264.884-47.538-17.362-11.234-16.964-36.77.74-47.454l80.386-48.493" stroke="#008354" stroke-width="4" mask="url(#oarvqm054b)"/>
        <g mask="url(#oarvqm054b)">
            <path d="M16 0h311c8.837 0 16 7.163 16 16v108c0 8.837-7.163 16-16 16H16c-8.837 0-16-7.163-16-16V16C0 7.163 7.163 0 16 0z" fill="url(#x54uh9x9pc)" transform="translate(93 52)"/>
            <g fill="#FFF">
                <text font-family="SourceSansPro-Bold, Source Sans Pro" font-size="18" font-weight="bold" transform="translate(215 76)">
                                    <tspan x="0" y="18">EniLive</tspan>
                                </text>
                <text font-family="SourceSansPro-Regular, Source Sans Pro" font-size="16" transform="translate(215 76)">
                                    <tspan x="0" y="43">La tua mobilità sempre con te. </tspan>
                                    <tspan x="0" y="65">Fai il pieno di servizi e premi.</tspan>
                                </text>
            </g>
            <g fill-rule="nonzero">
                <path d="M193.583 147.807v1.84c0 .224-.049.446-.144.663-.298.676-.775 1.09-1.454 1.465l-1.41.777a6.528 6.528 0 0 1-1.857.676c-1.906.387-4.179.247-5.858-.676v-1.946c1.681.926 3.952 1.066 5.858.677a6.574 6.574 0 0 0 1.857-.677l1.41-.777c.662-.364 1.383-.994 1.556-1.705.027-.105.04-.21.042-.317z" fill="#F7CC00"/>
                <path d="M193.583 147.704v.102c0 .108-.017.213-.042.318-.173.711-.894 1.341-1.556 1.705l-1.41.777a6.53 6.53 0 0 1-1.857.676c-1.906.388-4.174.25-5.858-.676l-33.203-18.302c-.41-.226-.802-.501-1.095-.863-.286-.354-.479-.793-.503-1.23v-.032c-.005-.14.007-.282.041-.42.174-.711.895-1.341 1.557-1.708l1.407-.776a6.516 6.516 0 0 1 1.86-.677c1.906-.387 4.176-.25 5.857.677l33.204 18.301c.41.224.801.502 1.094.863.294.362.49.814.504 1.262v.003z" fill="#FEE566"/>
                <path d="M182.86 150.606v1.946l-33.203-18.302a5.663 5.663 0 0 1-.597-.383c-.547-.408-1.001-1.091-1.001-1.742v-1.913c.024.436.217.875.503 1.23.293.363.684.636 1.095.862l33.203 18.302z" fill="#FED302"/>
                <path d="M184.454 120.355c.337.186.7.32 1.094.398 1.127.23 2.461.145 3.448-.398l1.41-.777c.391-.215.814-.586.917-1.003a.9.9 0 0 0 .024-.213v29.33a.956.956 0 0 1-.083.389c-.179.403-.462.644-.858.863l-1.41.777a3.857 3.857 0 0 1-1.095.396c-1.126.231-2.46.145-3.447-.396v-29.366z" fill="#B7CCC7"/>
                <path d="M184.453 120.355v29.364l-2.438-1.346v-22.715l-22.371-12.332-5.953-3.28v22.715l-2.441-1.344a3.03 3.03 0 0 1-.35-.226c-.322-.24-.59-.644-.59-1.026V100.8c.006.266.124.53.295.744.173.215.403.376.642.508l33.204 18.302h.002z" fill="#FFF"/>
                <path fill="#F26900" d="M159.641 113.326v16.157l-5.95 3.28v-22.717z"/>
                <path d="m181.665 130.242-2.879 1.588a.871.871 0 0 1-.757 0l-1.882-1.038 3.258-1.796 2.26 1.246z" fill="#FEE566"/>
                <path d="M178.027 131.83a.872.872 0 0 0 .757 0l2.879-1.588v12.894l-2.879 1.586a.864.864 0 0 1-.757 0v-12.891z" fill="#F7CC00"/>
                <path fill="#FED302" d="M178.027 131.83v12.892l-1.88-1.036v-12.894z"/>
                <path d="M176.148 130.792v12.894l-4.521-2.491V136.2c0-.117.044-.196.112-.233.069-.038.164-.033.267.025l3.7 2.04v-5.351l-.658-.363-3.421-1.885v-1.715c0-.116.041-.196.11-.233a.979.979 0 0 1 .015-.007c.068-.03.156-.02.254.033l4.144 2.284-.002-.003z" fill="#E8F5FF"/>
                <path d="M173.037 138.586c0 .332.215.66.542.924-.347-.16-.633-.112-.633.299 0 .455.372 1.024 1.01 1.374.38.21.686.245.904.114l-.294-.431c-.185.074-.361.058-.579-.063-.298-.164-.493-.441-.493-.719 0-.317.185-.324.5-.152l.22.122-.063-.395-.15-.081c-.26-.145-.446-.39-.446-.649 0-.217.161-.259.41-.121.215.119.386.287.56.541l.269-.133c-.25-.361-.538-.637-.875-.82-.577-.318-.882-.178-.882.188v.002z" fill="#5B9DDF"/>
                <path d="M171.749 128.476c1.083-.595 2.163-1.195 3.245-1.79l.025-.011c.068-.026.154-.012.244.037l4.142 2.284-3.258 1.796-4.144-2.284c-.098-.053-.186-.06-.254-.032zM171.734 135.964c1.088-.597 2.173-1.197 3.26-1.796H175c.07-.038.164-.03.264.025l.437.245h.003v3.59l-3.7-2.038c-.102-.056-.198-.063-.266-.026h-.003z" fill="#D6EBFF"/>
                <path d="m168.667 123.068-2.878 1.589a.871.871 0 0 1-.757 0l-1.882-1.038 3.257-1.797 2.26 1.246z" fill="#FEE566"/>
                <path d="M165.03 124.657a.872.872 0 0 0 .757 0l2.878-1.589v12.894l-2.878 1.587a.864.864 0 0 1-.758 0v-12.892z" fill="#F7CC00"/>
                <path fill="#FED302" d="M165.029 124.656v12.892l-1.88-1.036v-12.894z"/>
                <path d="M163.15 123.618v12.894l-4.52-2.491v-4.995c0-.117.043-.196.112-.233.068-.038.164-.033.266.025l3.7 2.04v-5.35l-.658-.364-3.42-1.885v-1.715c0-.116.04-.195.11-.233l.014-.007c.068-.03.156-.02.254.033l4.144 2.284-.002-.003z" fill="#E8F5FF"/>
                <path d="M158.751 121.302c1.083-.595 2.163-1.195 3.246-1.79l.024-.011c.068-.026.154-.012.244.037l4.142 2.284-3.257 1.796-4.144-2.284c-.098-.053-.186-.06-.255-.032zM158.737 128.79c1.087-.597 2.172-1.197 3.26-1.796H162c.071-.037.164-.03.264.026l.438.245h.002v3.59l-3.7-2.04c-.102-.055-.197-.062-.266-.025h-.002z" fill="#D6EBFF"/>
                <path d="M159.903 166.376v1.84c0 .225-.05.446-.144.663-.299.677-.775 1.09-1.454 1.465l-1.41.777a6.531 6.531 0 0 1-1.858.677c-1.905.387-4.178.247-5.857-.677v-1.946c1.681.927 3.952 1.067 5.857.677a6.573 6.573 0 0 0 1.858-.677l1.41-.776c.662-.364 1.383-.994 1.556-1.706.027-.105.04-.21.042-.317z" fill="#F7CC00"/>
                <path d="M159.903 166.274v.102c0 .108-.017.213-.042.317-.173.712-.894 1.342-1.556 1.706l-1.41.777a6.528 6.528 0 0 1-1.858.676c-1.906.387-4.173.25-5.857-.676l-33.203-18.3c-.41-.226-.802-.501-1.095-.863-.286-.354-.48-.793-.504-1.229v-.033c-.004-.14.008-.282.042-.42.174-.711.894-1.341 1.557-1.707l1.407-.777a6.519 6.519 0 0 1 1.86-.677c1.906-.387 4.176-.25 5.857.677l33.203 18.301c.411.224.802.502 1.095.863.293.362.489.815.504 1.263z" fill="#FEE566"/>
                <path d="m149.178 171.123-33.201-18.304a5.684 5.684 0 0 1-.597-.382c-.547-.408-1.002-1.092-1.002-1.743v-1.913c.025.436.218.875.504 1.23.293.364.684.637 1.095.863l33.203 18.301-.002 1.948z" fill="#FED302"/>
                <path d="M150.771 138.927c.337.186.701.32 1.095.399 1.126.228 2.46.144 3.448-.4l1.41-.776c.39-.215.813-.586.916-1.003a.9.9 0 0 0 .024-.212v29.329a.957.957 0 0 1-.083.39c-.178.403-.462.643-.857.862l-1.41.777a3.859 3.859 0 0 1-1.095.397c-1.127.23-2.46.144-3.448-.397v-29.366z" fill="#B7CCC7"/>
                <path d="M150.77 138.927v29.364l-2.438-1.346V144.23l-22.371-12.332-5.953-3.28v22.715l-2.44-1.343a3.045 3.045 0 0 1-.35-.227c-.323-.24-.592-.643-.592-1.026v-29.364c.008.266.125.53.296.744.174.215.403.376.643.509l33.203 18.301h.003z" fill="#FFF"/>
                <path fill="#B7CCC7" d="M125.959 131.898v16.155l-5.95 3.28v-22.715z"/>
                <path d="m147.983 148.814-2.88 1.589a.871.871 0 0 1-.757 0l-1.881-1.038 3.257-1.797 2.26 1.246z" fill="#FEE566"/>
                <path d="M144.347 150.4a.871.871 0 0 0 .757 0l2.879-1.589v12.894l-2.879 1.587a.863.863 0 0 1-.757 0V150.4z" fill="#F7CC00"/>
                <path fill="#FED302" d="M144.346 150.4v12.894l-1.881-1.038v-12.894z"/>
                <path d="M142.465 149.363v12.893l-4.52-2.491v-4.995c0-.116.043-.198.112-.233.068-.04.164-.033.266.026l3.7 2.038v-5.349l-.658-.364-3.42-1.885v-1.714c0-.117.04-.199.11-.234l.014-.007c.068-.03.156-.02.254.033l4.144 2.284-.002-.002z" fill="#E8F5FF"/>
                <path d="M138.069 147.048c1.082-.595 2.162-1.195 3.245-1.79l.024-.011c.069-.026.154-.012.245.037l4.142 2.284-3.258 1.796-4.144-2.283c-.098-.054-.186-.061-.254-.033zM138.054 154.536c1.088-.597 2.173-1.196 3.26-1.796h.005c.07-.037.164-.03.264.026l.437.245h.003v3.59l-3.7-2.039c-.103-.056-.198-.063-.266-.026h-.003z" fill="#FFF"/>
                <path fill="#5B9DDF" d="m139.508 159.591.523.287v-2.15l.62.702.233-.213-.906-1.028-.47-.26z"/>
                <path d="m134.985 141.64-2.878 1.589a.872.872 0 0 1-.758 0l-1.881-1.038 3.257-1.797 2.26 1.246z" fill="#FEE566"/>
                <path d="M131.35 143.23a.871.871 0 0 0 .757 0l2.879-1.59v12.894l-2.879 1.587a.863.863 0 0 1-.757 0v-12.892z" fill="#F7CC00"/>
                <path fill="#FED302" d="M131.35 143.229v12.891l-1.882-1.038V142.19z"/>
                <path d="M129.468 142.19v12.895l-4.52-2.492v-4.995c0-.116.043-.196.112-.233.068-.037.163-.033.266.026l3.7 2.039v-5.35l-.658-.364-3.42-1.885v-1.714c0-.117.04-.196.11-.234l.014-.007c.068-.03.156-.02.254.033l4.144 2.284-.002-.002z" fill="#E8F5FF"/>
                <path d="M125.072 139.874c1.082-.595 2.162-1.194 3.245-1.79l.024-.01c.069-.027.154-.013.245.036l4.142 2.284-3.258 1.797-4.144-2.284c-.098-.054-.186-.06-.254-.033zM125.057 147.362c1.087-.597 2.172-1.196 3.26-1.796h.005c.07-.037.163-.03.264.026l.437.245h.002v3.59l-3.7-2.039c-.102-.056-.197-.063-.265-.026h-.003z" fill="#FFF"/>
                <path d="M126.313 150.2c0 .45.269.926 1.131 2.186l-1.192-.658.059.431 1.735.957v-.371c-.953-1.451-1.186-1.827-1.186-2.202 0-.245.162-.299.401-.166.22.121.364.287.538.579l.322-.068c-.222-.399-.518-.72-.904-.933-.576-.317-.906-.168-.906.247l.002-.002z" fill="#5B9DDF"/>
                <path d="M199 114.426v3.564l-45.072 24.843c-.843.464-2.192.46-3.028 0v-3.564c.848.469 2.2.457 3.028 0L199 114.426z" fill="#B7CCC7"/>
                <path d="M150.9 142.833 109 119.739v-1.896c0-.177.022-.36.093-.525a.894.894 0 0 1 .352-.41.661.661 0 0 1 .156-.068c.286-.084.653.025.914.17l40.388 22.26-.003 3.563z" fill="#F1F5F4"/>
                <path d="M156.03 91.23a.722.722 0 0 1 .263-.085c.245-.03.48.005.807.185l41.9 23.095-45.072 24.843c-.828.457-2.18.47-3.028 0l-40.387-22.26c-.26-.143-.626-.255-.914-.17a.653.653 0 0 0-.157.067c15.532-8.557 31.06-17.116 46.587-25.676z" fill="#D4E0DD"/>
                <path d="M158.609 111.357c2.545 1.447 2.545 3.79 0 5.237s-6.673 1.447-9.217 0c-2.545-1.447-2.545-3.79 0-5.237 2.544-1.446 6.672-1.446 9.217 0z" fill="#FED302"/>
                <path d="M149.387 114.29c-.601.34-1.055.732-1.373 1.15.315.404.76.784 1.343 1.115 2.545 1.447 6.673 1.447 9.218 0 .6-.34 1.055-.733 1.372-1.15-.315-.405-.76-.784-1.343-1.116-2.545-1.447-6.672-1.447-9.217 0z" fill="#FEE566"/>
                <path d="M153.412 114.19c-.12.068-.19.152-.19.227 0 .074.07.156.19.225.334.193.903.193 1.24 0 .12-.067.19-.15.19-.225 0-.075-.07-.157-.19-.226a1.29 1.29 0 0 0-.62-.142 1.256 1.256 0 0 0-.62.142zM158.609 111.357c-.818-.467-1.803-.78-2.843-.945v1.685c1.04.166 2.025.478 2.843.944.891.507 1.465 1.125 1.731 1.776.494-1.204-.078-2.52-1.731-3.46zM155.766 110.41c-2.196-.35-4.648-.036-6.374.945-1.654.94-2.225 2.256-1.732 3.46.266-.65.84-1.269 1.732-1.776 1.726-.98 4.178-1.293 6.374-.944v-1.685z" fill="#F7CC00"/>
                <path d="M154.032 115.416c.712 0 1.29-.448 1.29-1s-.578-1-1.29-1c-.713 0-1.29.448-1.29 1s.578 1 1.29 1z" fill="#F7CC00"/>
                <path d="M166.089 89.767c-.286-6.632-4.765-14.166-10.004-16.832-2.31-1.175-4.378-1.204-5.951-.304h-.002l-4.504 2.587 3.436 1.783c-.044.401-.063.822-.068 1.256l-1.207.121-2.781 3.26.879 7.004 2.996 4.854 4.067 2.196 1.873-.26.757 1.71-.347.585-2.022 8.83.408 1.818 4.423-2.544a.921.921 0 0 0 .105-.06c.16-.107.373-.349.527-.631l5.925-9.272c.161-.218.332-.484.469-.734h-.003c.736-1.357 1.114-3.173 1.021-5.367h.003zm-11.327-8.521 3.375 6.01-.913 4.67c-2.794-1.537-5.823-6.064-5.823-9.627 0-1.008.41-2.138.425-2.397l2.936 1.341v.003z" fill="#007E4E"/>
                <path d="M166.098 89.767c-.286-6.632-4.764-14.166-10.003-16.832-2.31-1.175-4.379-1.204-5.951-.304h-.003l-4.503 2.587 3.436 1.783a12.91 12.91 0 0 0-.069 1.256l1.344.256 1.585-.161 4.405 3.881 2.946 7.055.595 4.192 6.223-3.478c0-.078 0-.154-.005-.235z" fill="#009E62"/>
                <path d="M161.507 92.4c-.286-6.632-4.765-14.167-10.003-16.832-5.24-2.664-9.258.553-8.973 7.183.096 2.193.65 4.484 1.537 6.665h-.003l.027.06c.164.4.34.797.525 1.189l7.007 15.85c.193.75.705 1.483 1.287 1.777.58.295 1.05.062 1.189-.52l5.925-9.271c.16-.219.31-.451.447-.7l.022-.034h-.003c.735-1.358 1.114-3.174 1.021-5.367h-.005z" fill="#006F44"/>
                <g>
                    <path d="M3.549 9.048a4.203 4.203 0 0 1-.668-.567s-.051-.06-.051-.008l.002.47c-.027.219.126.41.318.52.144.082-.017.188-.089.244-.106.084-.13.17-.083.26.042.082.077.04.213.243-.113.103-.175.152-.192.188 0 0-.102.114.141.325-.062.172-.162.156-.214.247-.055.097.125.307.11.31-.287.044-.5.16-.536.286-.102.26-.157.599-.223.872-.022.092-.137.12-.213.083-.28-.138-.492-.263-.735-.395-.08-.043-.047-.09-.047-.09.257-.364.844-.461.749-1.131-.256-1.8-.706-3.115-.96-4.707-.097-.608.097-1.355.163-1.396.052-.032.168.306.353.395 0 0 .288-.236.464-.233.136.055.65.54.65.54.058.02.138-.275.165-.433.127.107.343.233.493.243.34.023.326-.113.38-.078.103.067.2.33.21.47 0 .001.001.138.07.156.2.052.35-.118.428-.074.082.061.166.33.188.51 0 0 .014.106.127.12.1.011.157.004.33-.038.02-.005.055.028.06.056.091.251.1.447.211.52a.19.19 0 0 0 .22-.003c.034-.022.132-.072.17-.039.037.033.062.287.224.46.074.08.13.05.174-.044.028-.06.098-.112.124-.093.025.018.062.172.158.284.08.095.177.157.188.106.028-.126.129-.172.148-.118.03.08.07.133.13.22.074.093.125.13.203.162.25.104.42-.02.373-.072a1.377 1.377 0 0 1-.332-.767c.005-.107.007-.392.254-.372.116.01.308.115.403.254.086.127.138.24.138.375 0 .112-.024.209-.115.215-.067.004-.184-.06-.253-.153-.062-.084-.088-.196-.14-.26l-.015-.01c-.05.103.032.296.1.424.14.246.364.354.435.343.265.032.486-.432.538-.54.103-.217.185-.477.33-.678.128-.177.448-.284.953-.014.428.23.909.896.937 1.51.024.52-.142.615-.322.74-.114.078-.13.109-.085.17.136.183.17.22.272.405.425.783.612 1.534.85 2.31.062.19.086.386.162.568.328.624.644.937.69 1.021.027.052-.037.03-.038.133 0 .029.059.124.114.158.026.016.17.116.144.147-.084.102-.13.177-.12.276.014.115.066.031.204.12.033.022.047.05.03.071a.488.488 0 0 0-.11.26c-.02.054.037.24.183.292.015.005.03.027.026.041-.01.042-.095.036-.133.15-.082.253-.03.464.203.878.096.17.153.198.222.328-.292.123-.25.539-.298.744-.014.06-.069.038-.069.038l-.896-.329c-.073-.027-.129-.087-.045-.15.219-.165.505-.294.658-.508a2.12 2.12 0 0 0-.14-.407 87.72 87.72 0 0 1-.837-1.948c-.156-.379-.225-.402-.225-.402-.663-.486-1.082-.827-1.575-1.43-.036-.03-.034.019-.034.019 0 .135-.017.617.036.73.16.34.486.55.486.55s.05.11-.105.17c0 0-.033.003-.02.043.025.08.108.128.176.15.037.013-.023.102-.144.159-.028.013.01.134.05.183.012.014.015.026.007.033-.042.036-.223.089-.22.198l.035.658s0 .02-.009.027c-.014.01-.042 0-.042 0l-.88-.236a.124.124 0 0 1-.07-.068c-.024-.045.008-.078.008-.078l.54-.586.027-.033c.034-.185-.132-.46-.24-.662-.19-.36-.48-.81-.48-.81-.16-.236-.273-.843-.313-1.018-.015-.066-.072-.071-.12-.048a.852.852 0 0 0-.264.228c-.043.061-.06.272-.05.317.018.074.062.2.269.308-.02.125-.055.17-.123.2 0 0-.038-.002-.011.039.066.103.143.195.143.195a.348.348 0 0 1-.115.166c-.133.108.05.172.05.172a.917.917 0 0 1-.133.234c-.149.187-.046.626-.07.806-.006.04-.058.052-.123.026l-.92-.456c-.054-.03-.049-.098-.017-.12l.633-.49c.05-.046.003-.12-.019-.162 0 0-.403-.8-.535-1.34-.052-.214-.097-.487-.097-.487-.137-.055-.51-.2-.483.023-.033.077.078.466.155.51 0 0 .007.108-.119.084-.148-.028-.294.016-.274.086.02.056.09.12.118.135v.01c-.136.13-.273.008-.392.05-.042.014-.048.087.088.16-.109.068-.172.015-.244.016 0 0-.123-.018-.1.043.064.161.083.142.038.173-.062.043-.081.047-.175.028-.08-.016-.135.002-.135.002-.067.038-.046.118-.09.215-.068.15-.176.33-.294.426 0 0-.018.022-.048-.021l-.579-.832c-.05-.073-.023-.126-.023-.126.057-.102.172-.08.292-.094.163-.02.316-.037.462-.14.033-.022.047-.1.047-.1.07-.447.21-.922.309-1.338.027-.131-.122-.178-.122-.178-.203-.073-.36-.116-.52-.216-.05-.03-.062-.015-.104.066-.053.103-.13.344-.057.488.126.247.271.258.267.272-.043.155-.184.154-.235.173-.064.023-.082.053-.085.08-.003.025.008.133.15.185l.003.018s-.053.1-.184.143c-.055.018-.123.036-.15.058-.026.02-.03.1.08.157l-.002.027s-.07.147-.2.15a.233.233 0 0 0-.168.1c-.09.15-.19.63-.267.53-.159-.205-.541-.789-.541-.789-.043-.06-.05-.097-.05-.097-.018-.106.182-.09.253-.12.113-.05.278-.044.302-.268.033-.32-.073-.692-.116-.917-.047-.246-.127-.696-.112-.905.003-.04-.026-.06-.026-.06v.002zm4.679-.858c-.012.007-.016.022.005.034.186.1.407.112.584.087a.713.713 0 0 0 .449-.212s.095.07.444.236c.352.167.587.048.604-.293.02-.414-.35-.992-.767-1.09-.295-.07-.385.109-.5.254-.19.24-.407.737-.797.972 0 0-.01.004-.022.012zM5.583 6.953c.033-.022.14-.082.17-.04.059.084.062.288.224.461" fill="url(#0nq9qm90vd)" transform="translate(145 78)"/>
                    <path d="M2.912 2.753c.185-.07.348-.105.992-.115.061-.001-.06-.496-.122-.813-.02-.11-.096-.177-.13-.185-.824-.213-1.556-.19-1.72-.457l-.003-.003L1.101.064C1.03-.028.96-.019.972.08c.041.368.079.589.106.814.007.052-.002.073-.033.056C.857.85.678.898.568 1.046c-.154.208-.296.397-.55.395-.015 0-.022.016-.015.036a.9.9 0 0 0 .242.34c.105.094.154.095.233.18.013.013.019.033.015.045-.006.02-.018.03-.03.05-.214.297.032.952-.332 1.078-.018.006-.012.044.011.06.424.305.554.047.606.137-.128.345-.065.436-.145.92-.018.11-.097.22-.027.235.55.123.65-.062.69-.083.046-.025.057-.132.18.154.027.062.067.142.087.142.015.011.037-.017.046-.026.107-.108.24-.127.39-.12.008 0 .015 0 .023.005.19.122.35.278.57.493.017.016.035.018.04.002.097-.287-.06-.677-.054-.719.006-.041.026-.008.105.118.169.272.432.426.587.466.083.021.193.02.228-.02.013-.015 0-.048-.023-.064-.47-.324-.494-.853-.69-1.304-.01-.025-.02-.062-.013-.064l.148.16c.003.003.657.502.685.522.066.047.097-.016.097-.016.005-.019.047-.167.043-.32-.002-.069-.071-.148-.103-.13-.012.007-.024.015-.037.018-.016.004-.038-.005-.057-.021a5.078 5.078 0 0 1-.407-.364l-.236-.532c-.016-.06.023-.06.038-.066h-.001zm-.592-.53a.392.392 0 0 1-.187-.323c0-.13.085-.176.187-.121a.397.397 0 0 1 .205.33c0 .13-.086.177-.205.114z" fill="url(#pjcvbkz6pe)" transform="translate(145 78)"/>
                    <path d="M8.155 4.443c-2.348-.85-3.106-.445-2.738.182.268.455 1.018 1.044 1.137 1.09.04.021.06.052.093.1.02.031.018.049.018.049-.232-.117-1.207-.824-1.524-1.427-.422-.806-.303-2.41 3.845-.14.225.123.638.388 1.04.673.17.12.15.378-.021.288a15.036 15.036 0 0 0-1.85-.815z" fill="url(#tow4pgi4kf)" transform="translate(145 78)"/>
                </g>
            </g>
            <g>
                <path d="M16 0h311c8.837 0 16 7.163 16 16v108c0 8.837-7.163 16-16 16H16c-8.837 0-16-7.163-16-16V16C0 7.163 7.163 0 16 0z" fill="url(#caai5dohzg)" transform="translate(254 225)"/>
                <g fill="#FFF">
                    <text font-family="SourceSansPro-Bold, Source Sans Pro" font-size="18" font-weight="bold" transform="translate(376 249)">
                                    <tspan x="0" y="18">Enjoy</tspan>
                                </text>
                    <text font-family="SourceSansPro-Regular, Source Sans Pro" font-size="16" transform="translate(376 249)">
                                    <tspan x="0" y="43">Vehicle sharing. </tspan>
                                    <tspan x="0" y="65">Il modo migliore per muoversi </tspan>
                                    <tspan x="0" y="87">in città.</tspan>
                                </text>
                </g>
                <g fill-rule="nonzero">
                    <path d="m271.597 298.889 38.63-22.302a12.123 12.123 0 0 1 12.157.006l34.637 20.095 2.979-1.029-.006 2.408c0 .63-.313 1.26-.934 1.62l-39.293 22.682a12.123 12.123 0 0 1-12.157-.006l-36.682-21.279a1.85 1.85 0 0 1-.922-1.454c0-.864 0-1.692-.006-2.552l1.597 1.811z" fill="#B7CCC7"/>
                    <path d="m359.066 297.282-39.293 22.682a12.123 12.123 0 0 1-12.157-.006l-36.682-21.279c-1.244-.723-1.241-2.525 0-3.248l39.293-22.685a12.123 12.123 0 0 1 12.157.006l36.682 21.282c1.244.723 1.241 2.525 0 3.245v.003z" fill="#FCFCFC"/>
                    <path d="M308.425 318.552a10.514 10.514 0 0 0 10.539.006l37.851-21.85a1.213 1.213 0 0 0 0-2.098l-35.243-20.446a10.505 10.505 0 0 0-10.542-.006l-23.656 13.657-9.423 5.442-4.907 2.831a1.124 1.124 0 0 0 0 1.943l35.38 20.52z" fill="#D4E0DD"/>
                    <path d="M324.787 294.556c3.975-2.144 13.383-8.09 17.11-10.625-.163-.743-.495-1.99-.772-2.777-2.883 1.74-7.951 4.655-10.426 5.941-1.065.546-.734.789-5.912 7.46zM308.86 289.782c-.086.38-.026.576.263.893.239.261.621.58 1.176.969 1.657 1.164 6.656 4.156 8.692 4.723.85.237 1.134.102 2.238-.14l.024.017c1.534-2.144 5.993-8.333 6.784-9.73-2.641-1.467-9.646-5.51-11.631-6.748-.493.336-1.036.849-2.483 2.738a182.438 182.438 0 0 0-4.857 6.753l-.208.525h.003z" fill="#F1F5F4"/>
                    <path d="M348.348 287.197a5.24 5.24 0 0 0-.684-1.412c.496.842.373 1.436-.12 2.03.353.395.538.995.655 1.514.355.048.516.357.516.705.03-.816-.048-1.506-.2-2.276-.05-.21-.14-.486-.164-.561h-.003z" fill="#333"/>
                    <path d="m345.978 296.613.164.348c.069.147.35.17.508.012.077-.075.098-.165.074-.24-.05-.171-.104-.345-.155-.516a1.648 1.648 0 0 1-.591.396zM320.307 308.344l-.188-.126-.075.111c-.128.204-.245.408-.313.534.068.066.095.087.12.114.312.29.838-.393.456-.633z" fill="#C5C5C5"/>
                    <path d="M322.175 308.11a7.005 7.005 0 0 0-.254-.147.304.304 0 0 1-.065-.027c-.135-.06-.373-.11-.534-.213-.033-.02-.087-.06-.096-.093-.006-.015.006-.024.015-.042a.212.212 0 0 0-.039-.036c.01.12.015.243.024.363.006.12-.22.216-.373.237-.272.036-.415-.099-.406-.234l.009-.159a8.324 8.324 0 0 0-.328.453c.015.012.197.132.215.144.33.234-.17.909-.484.615l-.12-.114c-.089.165-.17.333-.247.5.104-.047.17-.083.278-.032.253.123.292.656.09.725h-.01c-.173.054-.35.105-.525.156.083.102.137.12.164.141l.072-.099c.017-.024.068-.027.128 0 .125.051.25.183.337.285.018.021.161.192.143.201 0 0-.003.006-.006.006.129.072.254.147.383.219-.2-.13-.32-.393-.317-.74 0-1.161 1.209-2.493 1.952-2.115l-.006.006z" fill="#858585"/>
                    <path d="M308.443 295.845a.856.856 0 0 0-1.182.327l-.654 1.17a.912.912 0 0 0-.107.341.876.876 0 0 0 .346.378l4.178 2.423a.856.856 0 0 0 1.182-.327l.654-1.17a.912.912 0 0 0 .107-.34.876.876 0 0 0-.346-.379l-4.178-2.423z" fill="#A59E1E"/>
                    <path d="M340.412 292.55c-4.713 2.968-15.363 9.524-20.162 12.118l.128.23c.29-.155.553-.284.914-.42a5.478 5.478 0 0 1 1.447-.317c2.37-.198 3.701 1.157 3.654 2.579a1.554 1.554 0 0 1-.138.617 181.993 181.993 0 0 0 4.815-2.695l-.156-.273-.262-.066a5.361 5.361 0 0 0-.105-.72c2.97-2.003 6.25-4.333 9.112-6.486.35-.96.74-2.25.827-3.266a4.16 4.16 0 0 0-.071-1.304l-.003.003zM306.422 289.659c-1.29.977-1.892 1.661-2.525 2.885.528-.996.958-1.284 1.597-1.578.253-.303.555-.608 1.155-1.082a3.902 3.902 0 0 0-.224-.222l-.003-.003z" fill="#D2CB45"/>
                    <path d="m323.244 307.741-.785.69a.107.107 0 0 1 .012.027c.065.168.086.366.065.576.096.018.194.033.293.05.101.019.194.118.209.268.024.203-.117.362-.266.36-.4-.004-.385-.007-.412-.007-.137.333-.346.651-.594.897.054.171.105.342.155.516.024.072 0 .165-.074.24-.17.168-.466.123-.514-.024-.053-.111-.104-.225-.158-.34-.077.028-.149.046-.22.055-.054.006.023-.024-.248.192-.105.32-.206.641-.31.962-.01.03-.048.051-.111.054-.188.012-.51-.132-.496-.216.024-.105.045-.21.066-.314a1.735 1.735 0 0 1-.507.102c.235.452.63.644 1.101.63.501-.019 1.018-.322 1.4-.64 1.376-1.139 2.032-3.133 1.665-4.297l-.253.066c.015.051.017.111-.024.147l.006.006z" fill="#858585"/>
                    <path d="M344.85 293.941a7.98 7.98 0 0 0-.561 1.035c-.475 1.058-.785 2.477-.394 3.544.346.993 1.295 1.482 2.57.942 2.372-1.005 4.217-4.801 3.396-6.885-.316-.798-1-1.25-1.937-1.08-1.236.222-2.4 1.386-3.071 2.444h-.003zm1.558 6.052c-1.833.78-3.125-.294-3.122-2.33 0-2.558 1.958-5.608 4.08-6.508 1.236-.525 2.182-.2 2.695.606 1.388 2.192-.764 7.008-3.653 8.232z" fill="#767676"/>
                    <path d="M346.721 293.578s-.086-.036-.095-.042c-.096-.033-.558-.162-.6-.29-.006-.019.006-.025.015-.043l-.04-.036c.007.12.016.237.022.357.015.144-.385.321-.627.22-.107-.043-.158-.127-.152-.21 0-.055.006-.109.009-.163-.114.147-.224.3-.329.456.063.042.129.084.191.13.382.212-.14.932-.46.632l-.119-.114c-.09.165-.17.33-.247.5.09-.038.16-.086.277-.032.269.129.28.68.09.725-.06.021-.493.15-.532.162.084.105.138.117.165.141.024-.033.047-.063.068-.096.018-.027.066-.03.132-.006.125.051.25.183.337.285.018.021.161.192.143.201l-.006.006c.129.072.254.147.382.219-.2-.132-.32-.396-.316-.74 0-1.143 1.185-2.48 1.94-2.12-.08-.049-.161-.097-.242-.142h-.006z" fill="#858585"/>
                    <path d="M322.51 306.653c-.293-.027-.559.042-.821.147-.147.258-.296.515-.442.773-.006.018-.03.042-.024.06.048.15.612.28.693.33.11-.252.57-1.271.587-1.31h.006z" fill="#C5C5C5"/>
                    <path d="M309.15 288.516s-.003.006-.006.006l.006-.006z" fill="#95B020"/>
                    <path d="m320.378 304.895-.128-.23c-.934.503-1.516.791-2.319 1.025-1.66.489-2.507.474-6.411-1.562-2.35-1.224-6.1-3.386-8.065-4.79-.424-.302-1.08-.788-1.352-1.217a1.016 1.016 0 0 1-.17-.48 1.24 1.24 0 0 1 .015-.35c.045-.312.22-.702.364-.98a3.249 3.249 0 0 0-.403.8c-.83 2.02-.86 4.525-.558 5.44v.005l.003.006.009.03a.6.6 0 0 1 .278-.317c.36-.357.286-.297.334-.33.26-.204.665-.144 1.08.207 1.878 1.574 5.63 3.769 8.465 4.876 1.062.413 2.068 1.682 2.179 2.794.027.285.086.63.224.882.319.069.63.123.94.162.262-.27.435-.798.958-1.62 1.095-1.718 3.035-3.502 4.56-4.345l-.003-.006z" fill="#D2CB45"/>
                    <path d="M347.661 285.704c-.009-.87-.158-1.989-.42-2.753a3.064 3.064 0 0 0-.606-1.059c.113.147.071.237-.033.384-.191.26-.475.5-.723.696.58.042.944.165 1.21.941.22.645.37 1.743.363 2.585.018-.036.174-.237.203-.51a.899.899 0 0 0-.003-.218c0 .027 0-.003.006.09v-.16l.003.004z" fill="#333"/>
                    <path fill="#B8D361" d="M344.966 296.355h.003z"/>
                    <path d="M323.521 307.528c-.176-.54-.546-.833-1.012-.875l-.09.2c.07.196.105.408.117.618l.32-.222c.03-.02.086-.012.152.027a.633.633 0 0 1 .26.318l.253-.066z" fill="#858585"/>
                    <path d="M347.339 294.646c.072-.738-.358-1.176-1-.903-.683.291-1.313 1.275-1.313 2.096 0 .702.46.99 1.006.75.68-.29 1.238-1.2 1.307-1.946v.003z" fill="#AAA"/>
                    <path d="M321.22 307.918a94.361 94.361 0 0 1-.05-.827 4.014 4.014 0 0 0-.553.464c-.057.07-.113.138-.167.21l-.009.16c-.006.083.045.167.152.21.245.098.636-.073.627-.214v-.003z" fill="#C5C5C5"/>
                    <path d="M305.494 290.966c.071.384.36.762 2.438 2.072.161.102.335.21.514.321-.147-.473-.32-.947-.514-1.397a4.686 4.686 0 0 1-.241-.249c-.287-.32-.544-1.811-.51-2.237l-.535.408c-.6.474-.899.78-1.155 1.082h.003z" fill="#D2CB45"/>
                    <path d="M321.766 310.602c.526-.519.958-1.508.705-2.147a.64.64 0 0 0-.296-.345c-.74-.378-1.952.95-1.952 2.114 0 .291.09.612.34.756.382.222.89-.066 1.203-.378z" fill="#AAA"/>
                    <path d="M302.145 298.181c.269.381.86.834 1.352 1.185a7.135 7.135 0 0 1-.54-.501c-.275-.312-.361-.8-.382-1.214-.015-.303.006-.561.009-.687a.97.97 0 0 1-.114-.357l-.006-.072c-.018-.276.066-.492.132-.72-.245.381-.588 1.029-.648 1.476-.054.327-.009.59.203.89h-.006z" fill="#333"/>
                    <path fill="#6B8091" d="M320.163 310.74v.003z"/>
                    <path d="M316.88 299.89c-1.265.204-2.465 1.044-2.954 2.253-.2.494-.41 1.067-.553 1.574-.053.186-.403.936-.501 1.088.027 0 .555.234 1.313.462 1.367.405 3.364-.914 3.883-2.252.436-1.112.934-2.228 1.743-3.061-1.925.287-1.811-.24-2.93-.06v-.003z" fill="#333"/>
                    <path d="M317.779 302.898c.325-.83.767-1.835 1.292-2.552-1.149.063-1.28-.285-2.14-.15-1.224.198-2.29 1.008-2.719 2.06a15 15 0 0 0-.606 1.77c-.05 0 .021-.051-.301.609.355.134.668.24.967.33 1.188.353 3.038-.858 3.507-2.07v.003z" fill="#767676"/>
                    <path fill="#B8D361" d="M320.163 310.74v.003l.003-.003z"/>
                    <path d="M346.54 287.356c-.028.018-.055.036-.084.057.026-.018.056-.036.083-.057zm-.46.309.041-.027c.269-.177.215-.144-.042.027zm1.5.096c-.33.42-.733.671-3.661 2.549.047-.306.238-1.152.33-1.29a8.44 8.44 0 0 0 .081-.216c.01-.024-.023.012.669-.444 1.758-1.145 2.131-1.364 2.453-1.862v.006c.093-.14.168-.29.194-.456a1.27 1.27 0 0 0 .012-.186c.006-.077-.009-.071.021-.02.012.02 0 0-.015-.04.478.822.37 1.383-.086 1.959h.003zM313.923 302.14c.489-1.206 1.692-2.046 2.954-2.252 1.084-.174 1.045.326 2.773.084.093-.228.182-.444.266-.64-.752-.095-1.463-.296-3.752-1.52-1.847-.986-4.728-2.638-6.859-3.93.233.854.394 1.672.508 2.347l2.728 1.583a.868.868 0 0 1 .319 1.176l-.654 1.17a.861.861 0 0 1-1.182.326l-4.178-2.423a.867.867 0 0 1-.32-1.175l.654-1.17a.861.861 0 0 1 1.182-.327l1.537.921a21.623 21.623 0 0 0-.594-2.426c-.182-.11-1.212-.744-1.373-.846-2.077-1.31-2.37-1.69-2.438-2.072-.71.327-1.17.645-1.818 2.024-.409.861-.818 1.926-1.083 2.825l-.042.141v.006s0 .006-.003.012c-.066.222-.105.405-.078.63v.003c.018.117.051.228.117.354 0-.696.206-1.49.45-2.117.391-.999.92-2.243 1.65-3.008 0 .288.171.543.362.756.158.18.215.198.293.35.33.66.038 2.543-.177 3.314-.202.732-.519 1.296-.79 2.28-.06.06 5.112 3.337 8.995 5.178v-.003c.01.039.09-.432.556-1.571h-.003z" fill="#D2CB45"/>
                    <path d="M322.536 309.034c-.02.216-.083.45-.176.674l.412.006c.15.003.287-.156.266-.36-.015-.15-.108-.248-.21-.266-.098-.018-.196-.033-.292-.051v-.003z" fill="#C5C5C5"/>
                    <path d="M309.64 287.77a64.823 64.823 0 0 0-2.46 1.703c-.158.312-.074.99.024 1.121.054-.086.403-.917.472-1.001.414-.513 1.185-1.1 1.752-1.517.068-.096.137-.198.209-.303l.003-.003z" fill="#B7CCC7"/>
                    <path d="M317.97 304.446c.36-1.014 1.02-2.813 1.576-4.205-.645.765-1.114 1.833-1.48 2.771-.263.678-.902 1.32-1.517 1.713a.041.041 0 0 0-.012.009c.457-.012.967-.144 1.43-.288h.003z" fill="#D2CB45"/>
                    <path d="M302.593 295.812c.024-.084.05-.17.077-.258-1.65 1.392-2.802 3.76-2.802 5.698 0 .77.182 1.34.43 1.73.256.624.662 1.07 1.137 1.347l.328.189a4.163 4.163 0 0 1-.257-.321c-.137-.252-.197-.594-.224-.882-.03-.303 0-.546.078-.726 0-.009-.006-.02-.009-.03v-.012s-.003 0-.003-.003c0-.006-.003-.009-.003-.018-.17-.602-.17-1.181-.161-1.778.03-1.676.409-3.08.886-4.036.081-.162.17-.312.24-.405.113-.216.223-.399.286-.498l-.003.003z" fill="#333"/>
                    <path d="M320.02 310.54c-.086-.103-.215-.235-.337-.286-.06-.024-.11-.02-.128 0-.084.117-.033.048-.412.573 0 .309.033.603.158.89.537-.608.806-.908.862-.971l.006-.006c.018-.012-.128-.183-.143-.204l-.006.003z" fill="#C5C5C5"/>
                    <path d="M320.665 296.718c-.654.147-1.036.192-1.767-.01-2.068-.575-7.083-3.568-8.799-4.773-.394-.279-.907-.663-1.233-1.02-.358-.395-.462-.71-.337-1.238.108-.456.4-.855.412-.882l.49-.716c-.594.437-1.543 1.148-1.934 1.772.635.827 1.116 1.88 1.48 2.948 2.883 1.982 6.462 3.919 8.121 4.612 1.782.743 2.779.755 3.96.51a8.355 8.355 0 0 0 1.732-.561c3.513-1.524 16.284-9.734 19.233-11.686-.039-.057.069-1.31.14-1.443-3.062 2.054-15.618 10.145-19.283 11.746-.687.3-1.46.576-2.212.744l-.003-.003z" fill="#F3F4F5"/>
                    <path d="M347.312 292.265a1.705 1.705 0 0 0-.812.144c-.003 0-.006 0-.009.003-.092.162-.388.674-.465.812-.021.03.062.093.095.114.176.111.517.19.594.234h.006c.015-.03.027-.063.042-.093.62-1.4.546-1.196.546-1.22l.003.006zM344.966 296.355c.018-.012-.128-.183-.143-.204-.087-.102-.215-.234-.337-.285-.063-.027-.114-.024-.132.006a46.89 46.89 0 0 1-.412.57v.027c0 .372.06.62.159.864.247-.28.492-.555.74-.834l.128-.144h-.003z" fill="#C5C5C5"/>
                    <path d="M306.646 289.88a95.244 95.244 0 0 1 3.023-2.113c.138-.201.317-.45.475-.675-2.42 1.595-2.812 1.907-3.719 2.567.072.069.155.147.224.222h-.003z" fill="#D2CB45"/>
                    <path d="m347.631 294.697-.292-.051a2.41 2.41 0 0 1-.176.671c.137 0 .277.003.415.006.14 0 .274-.14.265-.335-.009-.162-.104-.273-.212-.291z" fill="#C5C5C5"/>
                    <path d="M321.721 306.785c.806-.327 1.529-.084 1.8.74.358 1.14-.265 3.137-1.665 4.298-1.761 1.457-3.194.278-2.57-1.97-.337.926-.537 2.131-.191 3.055a.752.752 0 0 0 .239.216c.379.222.832.24 1.283.123 2.15-.555 4.17-4.048 3.567-6.21-.233-.846-.764-1.056-.791-1.08a.894.894 0 0 0-.269-.075c-.958.165-1.874.92-2.5 1.664.313-.312.689-.596 1.1-.764l-.003.003z" fill="#B3B2B2"/>
                    <path d="M340.486 291.26c.517-.98 1.257-2.53 1.594-3.583.12-.366.233-.813.218-1.197-.015-.309-.11-.534-.269-.788-3.787 2.47-11.992 7.65-16.105 10.192-3.985 2.462-5.026 3.014-6.008 3.452-.084.195-.17.408-.266.639.05-.006.105-.015.155-.024a4.711 4.711 0 0 0-.262.29 139.327 139.327 0 0 0-1.576 4.205c3.03-.948 19.857-11.504 22.516-13.186h.003z" fill="#333"/>
                    <path d="M319.76 309.33c-.107-.05-.176-.014-.277.034-.018.042-.2.464-.2.491a4.299 4.299 0 0 0-.09.4s.654-.196.657-.199c.203-.069.164-.602-.09-.725z" fill="#C5C5C5"/>
                    <path d="M317.97 304.446c-.463.14-.976.276-1.43.288.006 0 .009-.006.012-.01-.669.435-1.597.768-2.37.54a15.13 15.13 0 0 1-1.313-.462c2.73 1.323 3.573 1.326 5.059.882a8.135 8.135 0 0 0 1.42-.558c3.81-1.87 17.273-10.198 21.067-12.588-.042-.174-.01-1.062.068-1.269-2.713 1.721-19.466 12.223-22.513 13.177z" fill="#333"/>
                    <path d="M344.286 294.976c-.033.069-.2.464-.2.494-.036.13-.066.261-.087.396.158-.048.585-.174.654-.198.194-.045.173-.596-.09-.725-.116-.054-.19-.003-.277.033z" fill="#C5C5C5"/>
                    <path d="M301.28 303.318c.03.285.086.627.223.882.496.677 1.275 1.304 1.955 1.802 2.376 1.748 7.056 4.417 10.047 5.077-.138-.252-.194-.597-.224-.882-.108-1.112-1.113-2.378-2.179-2.792-2.835-1.106-6.587-3.301-8.465-4.876-.749-.626-1.471-.32-1.36.79h.002z" fill="#333"/>
                    <path d="M301.635 302.272c.26-.138.63-.06 1.002.257 1.875 1.575 5.63 3.77 8.465 4.876 1.063.414 2.071 1.683 2.179 2.792.027.285.086.63.224.882l.412-.381c-.138-.252-.197-.597-.224-.882-.11-1.112-1.114-2.38-2.18-2.794-2.835-1.104-6.586-3.302-8.464-4.876-.415-.348-.82-.411-1.08-.207-.14.14-.045.045-.334.33v.003z" fill="#444"/>
                    <path d="M302.58 296.967c0 .126-.023.38-.008.687.02.413.11.902.382 1.214.095.11.504.47.546.504.236.165.152.108.364.252.126-.192.525-1.083.502-1.083.28-1.004.582-1.52.79-2.279.206-.744.51-2.648.177-3.314-.078-.152-.135-.173-.293-.35-.19-.216-.361-.468-.361-.756-.725.759-1.25 1.982-1.65 3.008-.484 1.232-.454 2.156-.454 2.123l.006-.006z" fill="#333"/>
                    <path d="M303.757 299.168c.424-.876.32-.912.844-2.222.102-.255.17-.426.266-.77.254-.912.343-2.028.301-2.613-.014-.21-.05-.372-.104-.477-.066-.129-.304-.293-.498-.62-.382.524-.788 1.34-1.24 2.492-.27.692-.429 1.421-.429 2.003-.039.009-.048.006 0 .006 0 .135-.024.36-.009.669.024.467.132.821.308 1.025.086.102.471.44.567.507h-.006z" fill="#767676"/>
                    <path d="m303.867 299.62.042.028c2.08 1.418 6.04 3.73 8.96 5.151.095-.152.448-.902.501-1.088-2.772-1.314-6.832-3.68-8.995-5.173v-.003c-.051.171-.394.915-.502 1.083l-.006.003z" fill="#333"/>
                    <path d="M306.524 296.883a.868.868 0 0 0-.027.797c.024-.242.053-.245.76-1.51a.861.861 0 0 1 1.183-.328l1.438.834a10.77 10.77 0 0 0-.083-.456l-1.439-.834a.856.856 0 0 0-1.182.327l-.653 1.17h.003z" fill="#B7B030"/>
                    <path d="M307.207 290.594c-.042.531.337 1 .725 1.365-.056-.132 1.78 1.556 1.708 1.118-.081-.482-1.991-3.133-2.146-3.23l-.287.747z" fill="#F3F4F5"/>
                    <path d="M313.645 282.288c1.606-2.102 2.14-2.558 2.758-2.945 1.683 1.077 9.604 5.65 12.112 7.026-.302.57-.645 1.137-2.155 3.293a917.702 917.702 0 0 1-4.85 6.825 8.934 8.934 0 0 1-.848.228c-.654.147-1.036.192-1.767-.01-2.068-.575-7.083-3.568-8.799-4.773-.394-.279-.907-.663-1.232-1.02-.359-.395-.463-.71-.338-1.238l.233-.585a176.26 176.26 0 0 1 4.889-6.801h-.003zm14.392 4.222c-2.641-1.466-9.646-5.508-11.631-6.747-.493.336-1.036.849-2.483 2.738a182.438 182.438 0 0 0-4.857 6.753l-.208.525c-.087.38-.027.576.262.893.239.261.621.58 1.176.969 1.657 1.164 6.656 4.156 8.692 4.723.85.237 1.134.102 2.238-.14l.024.017c1.394-1.946 5.984-8.318 6.784-9.73h.003z" fill="#333"/>
                    <path d="M309.1 292.886c-.042-.027-1.123-.894-1.165-.924.123.363.415 1.04.514 1.397 2.13 1.29 5.87 3.47 7.718 4.456 2.29 1.224 3.003 1.425 3.752 1.52.979-.437 2.023-.989 6.008-3.45 6.172-3.815 16.13-10.16 16.096-10.211-2.91 1.925-15.69 10.147-19.233 11.686a8.3 8.3 0 0 1-1.731.56c-1.182.246-2.179.234-3.96-.51-2.12-.884-6.12-3.202-8-4.524z" fill="#D2CB45"/>
                    <path d="m312.54 297.815-2.727-1.583c.026.159.05.309.068.45l2.74 1.59a.876.876 0 0 1 .346.377.868.868 0 0 0-.426-.834z" fill="#B7B030"/>
                    <path d="M317.627 278.087c-.875.59-1.46 1.043-2.12 1.766-1.196 1.31-3.76 4.888-5.426 7.28.021-.011.04-.026.06-.038a169.167 169.167 0 0 1 3.504-4.807c1.606-2.102 2.14-2.558 2.758-2.945.4-.525.895-.99 3.337-2.507 2.011-1.25 5.34-3.214 7.852-4.642a.356.356 0 0 0-.212.036c-.71.366-7.56 4.372-9.753 5.857z" fill="#4E9A4F"/>
                    <path d="M316.406 279.343c1.683 1.077 9.604 5.65 12.112 7.026 2.271-1.08 12.84-7.359 14.416-8.318 1.414-.858 1.737-1.098 1.964-1.305-.096-.41-.335-.78-2.108-1.925-1.773-1.145-5.083-3.065-7.005-4.063-1.922-.999-2.46-1.077-2.996-1.035-.484.057-.982.192-2.504.99-2.445 1.28-7.984 4.534-10.54 6.123-2.444 1.518-2.94 1.982-3.34 2.507z" fill="#D2CB45"/>
                    <path d="M319.793 312.047c-.015.081.308.225.496.216.063-.006.101-.027.11-.054l.373-1.154c-.152-.021-.206-.072-.611-.306a5.077 5.077 0 0 0-.123.138l-.245 1.16zM321.175 310.998l.164.348c.07.147.35.17.508.015.077-.078.098-.168.074-.24-.05-.174-.104-.345-.155-.516-.218.216-.453.354-.59.396v-.003z" fill="#C5C5C5"/>
                    <path d="M322.74 304.158a5.6 5.6 0 0 0-1.448.318c-.03 0-.463.183-.75.33-1.187.608-2.898 2.015-4.118 3.58-.442 1.214-.687 2.864 0 3.95.256.623.665 1.073 1.137 1.346l1.083.63c.033 0 .645.458 1.716.317-1.16-.057-1.886-1.061-1.883-2.582 0-2.75 2.23-5.967 4.426-6.636 1.167-.363 2.036.07 2.472.945-.287-.71-1.096-1.482-2.639-2.201l.003.003z" fill="#333"/>
                    <path d="M321.963 307.873c-.015.03-.027.06-.042.093.087.051.17.1.254.147a.627.627 0 0 1 .287.32c.26-.23.522-.458.785-.689.155-.138-.257-.585-.388-.495-.084.06-.69.48-.896.624z" fill="#C5C5C5"/>
                    <path d="M321.513 296.487c.495-.159.93-.324 1.364-.513 3.656-1.598 16.281-9.73 19.284-11.746l-.04-.174c-3.545 2.408-13.896 8.978-17.65 10.91 4.115-5.305 5.055-6.864 5.467-7.29.221-.228.478-.432.761-.579 2.842-1.475 9.053-5.083 10.572-6.027-.277-.744-.552-1.11-.92-1.473a913.117 913.117 0 0 1-7.89 4.618c-2.538 1.464-3.224 1.817-3.94 2.156-.302.57-.645 1.137-2.155 3.293a917.705 917.705 0 0 1-4.85 6.825h-.003z" fill="#333"/>
                    <path d="M322.74 304.158c1.542.72 2.351 1.49 2.638 2.2.09.184.16.385.215.613l.662.383c.09-.189.132-.404.138-.617.047-1.419-1.284-2.774-3.654-2.58z" fill="#B7CCC7"/>
                    <path d="M325.593 306.97c-.29-1.286-1.293-1.99-2.687-1.556-2.2.669-4.426 3.893-4.426 6.636-.003 2.022 1.278 3.113 3.122 2.33 2.49-1.052 4.564-4.911 3.988-7.406l.003-.003zm-3.931 6.877c-1.272.54-2.22.05-2.567-.939-.4-1.073-.078-2.48.391-3.544.161-.351.331-.675.561-1.035.027 0 .024-.105.57-.777.036-.033.794-1.016 1.886-1.481.457-.192.848-.246 1.162-.219.489.045.883.285 1.155.669 1.346 1.898-.603 6.237-3.161 7.323l.003.003z" fill="#767676"/>
                    <path d="M324.82 306.524a1.542 1.542 0 0 0-1.155-.669 1.969 1.969 0 0 0-.54.03.814.814 0 0 1 .268.075c.024.024.555.23.79 1.08.598 2.147-1.405 5.65-3.566 6.21-.534.138-1.08.09-1.498-.273.39.978 1.325 1.388 2.543.873 2.593-1.104 4.486-5.455 3.16-7.323l-.002-.003zM324.787 294.556l-.317.408c3.755-1.932 14.106-8.502 17.652-10.91-.129-.617-.529-2.15-.85-2.99-.049.03-.096.06-.144.087.292.822.588 1.968.767 2.75.027.111-12.076 7.941-17.105 10.652l-.003.003z" fill="#333"/>
                    <path d="M341.268 281.065c.337.875.669 2.183.89 3.163-.07.13-.177 1.344-.144 1.44.2.308.269.554.28.81.019.386-.098.83-.217 1.196-.337 1.052-1.077 2.603-1.594 3.583l-.006.01c-.074.21-.107 1.094-.068 1.27v.01c.098.425.107.866.068 1.304-.086 1.017-.477 2.306-.827 3.266a226.106 226.106 0 0 1-9.112 6.486l.263.06a228.916 228.916 0 0 0 9.21-6.558c.353-.969.747-2.273.836-3.302.04-.44.03-.884-.074-1.316l.006-.012c-.042-.174-.01-1.077.068-1.284.523-.992 1.275-2.564 1.618-3.631.12-.372.239-.822.218-1.212-.015-.312-.11-.54-.272-.797l-.012-.024c-.035-.096.072-1.323.144-1.455-.215-.944-.562-2.327-.91-3.223-.296-.765-.556-1.104-.92-1.458.678-.39 1.52-.881 2.233-1.322-.048-.04.22-.108-2.603 1.526.367.36.642.723.92 1.473l.005-.003z" fill="#E5E15C"/>
                    <path d="m330.807 303.663-.263-.06c.045.23.087.486.105.72l.262.066a5.9 5.9 0 0 0-.104-.726z" fill="#007E4E"/>
                    <path d="M330.807 303.66c.045.222.092.5.104.726 3.26-1.965 7.205-4.456 10.37-6.592.97-1.604 2.787-5.382 2.61-7.286.022-.045-.011.027.022-.19.003-.002.003-.005.003-.008.056-.37.262-1.22.33-1.29.362-1.001 1.225-3.301 1.123-4.372-.036-.39-.173-.585-.382-.873-.018-.069.403-1.634.48-1.76-.008-.024-.486-1.412-.996-2.525-.448-.977-.74-1.29-1.15-1.655-.364.225-.987.627-2.611 1.56.382.383.624.695.922 1.46.352.914.69 2.26.91 3.22-.071.135-.178 1.359-.146 1.455.14.246.266.422.284.821.018.39-.099.837-.221 1.209-.343 1.067-1.092 2.642-1.615 3.631-.077.204-.11 1.107-.068 1.28l-.006.013c.104.432.113.875.074 1.32-.044.527-.171 1.13-.331 1.721a20.635 20.635 0 0 1-.501 1.577 228.072 228.072 0 0 1-9.214 6.555l.009.003z" fill="#CAC754"/>
                    <path d="M340.686 297.815c.18-.099.469-.404.55-.548 1-1.752 2.483-4.987 2.345-6.813.018-.054.01-.04.03-.168.033-.273.224-1.128.358-1.4.299-.861 1.191-3.215 1.096-4.214-.042-.474-.302-.624-.364-.807-.06-.183.086-.584.31-1.421.015-.051.03-.099.042-.144a.972.972 0 0 0-.021-.618 31.146 31.146 0 0 0-.836-2.066c-.28-.609-.49-.938-.704-1.187a.34.34 0 0 0-.442-.06l-.191.117a.294.294 0 0 0-.075.44c.54.654 1.105 2.157 1.43 3.03.116.311.128.647.039.965-.35 1.226-.334 1.29-.302 1.394.075.198.326.339.365.807.086.905-.71 3.172-1.024 4.021-.024.066-.051.132-.072.192-.155.309-.4 1.44-.385 1.65.155 1.66-1.406 5.154-2.53 7.037l.384-.213-.003.006z" fill="#E5E15C"/>
                    <path d="m347.282 289.569.03-.015c.024 0 .478-.279.88-.222-.113-.519-.298-1.119-.653-1.514-.307.374-.785.686-3.623 2.504-.033.21-.006.153-.024.192.176 1.9-1.642 5.682-2.612 7.286-3.164 2.136-7.112 4.624-10.372 6.592l.156.273c3.336-1.929 7.858-4.651 11.013-6.724.585-.608.943-3.26 2.731-5.94.627-.942 1.48-1.913 2.474-2.43v-.002zM346.08 280.903l.008.018a22.064 22.064 0 0 0-.238-2.744c-.218-1.428-.454-1.838-1.433-2.58-1.639-1.24-6.417-3.964-8.336-4.932-.552-.279-1.254-.612-1.842-.798-.844-.267-1.26-.147-1.456-.147.537-.039 1.074.04 2.996 1.038s5.232 2.918 7.005 4.063c1.773 1.146 2.012 1.518 2.108 1.925.373.156.611.36.796 1.41.144.806.254 2.108.263 3.166.084-.126.161-.281.125-.422l.003.003z" fill="#333"/>
                    <path d="M347.808 289.764a1.87 1.87 0 0 0-.526-.198c-.994.516-1.847 1.49-2.474 2.429-1.827 2.738-2.12 5.302-2.731 5.94-.209.138-.424.28-.648.423.227.381.538.708.935.939.36.21.722.42 1.086.63.522.302 1.116.395 1.716.317-1.16-.057-1.886-1.064-1.883-2.582 0-2.557 1.958-5.607 4.08-6.507 1.236-.525 2.182-.2 2.695.606-.227-.56-.606-1.04-1.14-1.352-.263-.144-.239-.096-.233-.135l-.877-.51zM342.93 278.05l.019.019c.13-.081.256-.162.379-.237.411.366.701.68 1.149 1.655.319.69.704 1.691.955 2.402.2-.17.379-.336.522-.564-.009-1.058-.12-2.363-.263-3.166-.185-1.05-.423-1.254-.796-1.41-.227.207-.55.444-1.964 1.305v-.003z" fill="#333"/>
                    <path d="M347.748 292.394c1.51.863.328 4.444-1.74 5.466-.636.315-1.161.246-1.495.01-.192-.133-.32-.327-.415-.537 0-.045-.159-.273-.159-.867 0-.288.048-.65.144-.999-.338.924-.535 2.124-.191 3.05a.76.76 0 0 0 .238.219c.38.219.833.237 1.284.12 2.143-.552 4.17-4.045 3.567-6.207-.129-.462-.38-.858-.78-1.074a.87.87 0 0 0-.286-.084c-.967.174-1.877.927-2.507 1.676.382-.386.764-.632 1.077-.761l.01-.006c.402-.168.862-.225 1.247-.015l.006.009z" fill="#C5C5C5"/>
                    <path d="M348.984 292.652c.594 2.135-1.4 5.65-3.567 6.207-.648.168-1.164.021-1.498-.276.39.98 1.325 1.392 2.542.876 2.388-1.01 4.212-4.816 3.397-6.885-.316-.798-1-1.25-1.937-1.08.537.057.916.618 1.063 1.155v.003z" fill="#333"/>
                    <path d="M344.154 297.447c.376.713 1.138.77 1.854.416 1.558-.77 2.8-3.205 2.307-4.738l-.254.06c.018.054.027.132-.018.168-.26.231-.522.46-.785.69.003.009.01.018.012.027.066.168.087.366.066.576.099.018.194.033.293.05.107.022.205.133.211.295.01.195-.125.335-.265.335-.138 0-.278 0-.415-.003-.137.33-.346.651-.594.897.054.171.104.345.155.516.024.075 0 .165-.074.24-.159.156-.442.135-.508-.012 0-.006-.152-.321-.164-.348a.89.89 0 0 1-.248.057c-.074.069-.149.132-.22.189-.105.32-.207.642-.311.962-.048.153-.63-.045-.606-.162.024-.104.045-.21.066-.314a1.716 1.716 0 0 1-.508.102l.006-.003z" fill="#858585"/>
                    <path d="M345.572 296.667a.541.541 0 0 1-.209-.072c-.006 0 .054.03-.403-.234a5.077 5.077 0 0 0-.122.138c-.048.237-.239 1.134-.245 1.16-.024.114.558.315.606.162.394-1.223.367-1.14.373-1.154zM345.112 293.96l-.19-.13a7.074 7.074 0 0 0-.358.594c.07.29.396.327.593.027.146-.216.099-.414-.045-.495v.003z" fill="#C5C5C5"/>
                    <path d="M344.333 288.795c2.34-1.526 2.767-1.754 3.12-2.297.005-.842-.144-1.94-.365-2.585-.265-.773-.627-.9-1.209-.941-.188.144-.292.27-.871.701a.417.417 0 0 0-.012.096c.2.291.343.462.38.876.089.978-.696 3.224-1.043 4.15z" fill="#333"/>
                    <path d="M345.244 293.533c-.006.081.045.165.152.21.242.102.642-.072.627-.219-.006-.096-.03-.504-.051-.821-.2.138-.388.3-.558.47-.054.066-.11.132-.161.201l-.01.162v-.003z" fill="#C5C5C5"/>
                    <path d="M346.088 280.92c-.02-.041 0-.011 0 .049 0 .122-.065.251-.134.356-.143.225-.322.393-.522.564l.045.126c-.075.117-.421 1.448-.454 1.601.483-.35 1.253-.884 1.582-1.334.104-.147.146-.237.033-.384a8.166 8.166 0 0 1-.544-.971l-.006-.006z" fill="#F3F4F5"/>
                    <path d="M346.763 293.485c-.015.03-.027.063-.042.093l.242.141a.62.62 0 0 1 .295.324l.785-.69c.024-.02.036-.057.033-.099-.02-.21-.301-.44-.406-.401-.024.009-.883.614-.907.63v.002z" fill="#C5C5C5"/>
                    <path d="M347.223 292.463c0 .036.095.2.116.617l.316-.218.015-.01c.096-.035.329.153.391.333l.254-.06c-.185-.545-.564-.821-1.006-.86l-.09.2.004-.002z" fill="#858585"/>
                    <path d="M348.688 290.274c.09-.432-.057-.885-.492-.945-.26-.036-.58.069-.88.222.33.102.468.192 1.372.723zM334.012 289.026c.305-.192.606-.384.908-.573l1.071-4.288c-.298.171-.597.342-.895.51l-1.084 4.351zM330.13 291.431c.295-.18.593-.366.898-.555l1.143-4.57c-.31.168-.603.327-.88.474l-1.162 4.651zM332.798 289.785c.149-.093.301-.186.447-.28l1.102-4.41c-.15.087-.302.17-.445.255l-1.104 4.435zM337.848 286.585c.155-.096.307-.192.453-.288l1.015-4.069-.445.264-1.023 4.093z" fill="#B7CCC7"/>
                    <g fill="#D2CB45">
                        <path d="M323.5 294.862c-.373.371-.42 1.064-.26 1.571.165.507 1.221.855 1.221.855.717.207 1.845.42 2.582.317.146-.131.233-.32.275-.551.09-.465.009-1.056-.275-1.494-.943-.401-2.73-.731-3.546-.695l.003-.003z"/>
                        <path d="M323.31 294.41c.904-.096 1.563.04 2.402.351.525.195.937.369 1.334.8.102-.05.505-.27.427-.347-.928-.717-3.071-1.218-4.164-.804z"/>
                        <path d="M323.499 294.868c.812-.036 2.6.291 3.547.693-.397-.429-.81-.603-1.335-.8-.839-.313-1.499-.447-2.403-.351-.012.006-.021.008-.03.014v.006c-.084.093.137.342.224.435l-.003.003z"/>
                        <path d="M322.77 295.99c.026.072.044.117.044.117.2 1.203 3.218 2.15 4.627 1.617-.099.033-.302-.07-.389-.114-.739.102-1.87-.108-2.587-.318 0 0-1.061-.348-1.223-.855-.164-.507-.114-1.2.26-1.571-.087-.093-.305-.342-.221-.435v-.006c-.281.11-.517.288-.658.558-.129.192.066.782.144 1.001l.002.006z"/>
                        <path d="M327.085 295.617c.448.603.334 2.1.334 2.1l-.009.002c.01 0 .018 0 .024-.003h.003c1.137-.434 1.012-1.75.045-2.504.003.006.006.012.006.018 0 .09-.358.282-.439.324l.036.063z"/>
                    </g>
                    <path d="M327.046 297.603c.078.045.257.131.361.116.003 0 .006-.003.01-.003 0 0 .113-1.496-.335-2.099.254.43.325.987.239 1.43-.045.235-.132.424-.275.556zM308.04 284.312c-.627 0-.421 1.664-.269 2.28a4.388 4.388 0 0 1-.092-.595c-.027-.311-.048-1.01.149-1.247 0-.183.033-.435.215-.44l-.003.002z" fill="#D2CB45"/>
                    <g fill="#D2CB45">
                        <path d="M307.828 284.753c-.197.237-.176.936-.15 1.247.019.201.048.4.093.594.146.6.45 1.266.773 1.787.099.165.323.27.514.312.05-.44.02-1.34-.03-1.883-.245-.495-.92-1.718-1.197-2.054l-.003-.003z"/>
                        <path d="M308.043 284.312c-.185 0-.218.255-.218.44.28.337.952 1.56 1.197 2.055.104-.009.197-.02.283-.036.03-.006.308-.05.308-.08-.164-.595-.952-2.376-1.573-2.382l.003.003z"/>
                        <path d="M309.78 287.473a5.21 5.21 0 0 0-.164-.783c0 .03-.275.078-.308.081-.086.015-.179.027-.283.036.053.543.08 1.442.03 1.883a.516.516 0 0 0 .379-.11c0-.007.006-.013.009-.019-.042-.093-.081-.216-.063-.315a.461.461 0 0 1 .104-.194c.093-.13.296-.42.296-.58z"/>
                    </g>
                    <path d="m330.186 273.634-4.298 2.492c-1.462.848-1.462 2.225 0 3.073l.842.49c1.462.848 3.835.848 5.298 0l4.298-2.493-1.021-.594 1.728-1.001-1.266-.735-1.728 1.002-1.66-.963 1.729-1.001-1.266-.735-1.728 1.001-.928-.54v.004zm0 1.076c.487.282 3.758 2.18 4.283 2.483l-3.37 1.955c-.949.55-2.492.55-3.441 0l-.842-.488c-.949-.55-.949-1.446 0-1.995l3.37-1.955z" fill="#333"/>
                    <path d="M316.782 301.108c-.648.612-.955 1.337-.69 1.625.266.285 1.01.021 1.657-.59.648-.612.955-1.338.69-1.626-.266-.285-1.01-.02-1.657.591zM303.658 294.265c-.206.87-.062 1.646.317 1.736.379.09.853-.54 1.056-1.41.206-.869.063-1.646-.316-1.735-.38-.09-.854.54-1.057 1.409z" fill="#F1F5F4"/>
                    <path d="m339.239 289.485 1.017-.678c.523-.348.92-1.073.887-1.62l-.015-.248-2.913 1.94.015.25c.033.545.486.704 1.009.356z" fill="#98963A"/>
                    <path d="M309.523 297.692a.562.562 0 1 0 1.122 0 .562.562 0 1 0-1.122 0z" fill="#9BB8B1"/>
                    <path d="m339.095 289.58 1.018-.677c.522-.348.92-1.073.887-1.62l-.015-.248-2.913 1.94.014.25c.033.545.487.704 1.01.356z" fill="#D2CB45"/>
                    <path d="m339.492 288.576 1.128-.743a.313.313 0 0 0 .135-.243c-.006-.081-.072-.105-.15-.054l-1.128.743a.313.313 0 0 0-.134.243c.006.081.072.105.15.054z" fill="#98963A"/>
                    <path d="M290.926 279.73c.426-.243.632-.87.155-1.631-.35-.561-.946-1.014-1.334-1.143-.138-.045-.284-.066-.403 0l-.812.471c-.543.315-.806.999-.567 1.727.054-.05.271-.237.31-.276.039-.039.105-.048.158-.036.23.04.508.453.421.73-.036.116-.14.137-.376.386.51.465 1.155.519 1.642.237.265-.156.534-.309.8-.465h.006z" fill="#14602B"/>
                    <path d="M288.621 289.03v.647c-.006.297.066.56.191.816.129.251.254.398.418.578 2.069 2.081 7.044 1.833 8.647-.183.272-.341.448-.743.448-1.181v-.68c0 .44-.176.842-.448 1.18-1.603 2.019-6.578 2.265-8.647.187a2.5 2.5 0 0 1-.418-.576c0-.036-.19-.33-.19-.786v-.003z" fill="#F3F4F5"/>
                    <path d="M288.621 283.697v5.332c0 .474.191.753.191.786a2.5 2.5 0 0 0 .418.576c2.069 2.078 7.044 1.832 8.647-.186.272-.34.448-.741.448-1.182v-5.365c0 .801-.582 1.46-1.28 1.905-1.872 1.178-5.06 1.211-7.003.084-.74-.43-1.403-1.107-1.42-1.947v-.003z" fill="#198038"/>
                    <path d="M297.044 285.56c-1.871 1.178-5.056 1.211-7.002.084-.77-.447-1.42-1.13-1.42-2.019v-3.556c.483.357 1.059.378 1.504.123.265-.156.534-.309.8-.465.426-.243.632-.87.155-1.631-.35-.561-.946-1.014-1.334-1.143-.14-.045-.299-.069-.421.012-.236.135-.472.273-.708.411v-7.266c.006 3.575 4.42 7.191 7.65 6.193 1.26-.39 2.057-1.458 2.057-2.94v10.295c0 .801-.582 1.464-1.284 1.905l.003-.003zm-.358-3.047v.968a3.93 3.93 0 0 0 .427-.248v-.969c.504-.45.746-1.32.746-1.994v-1.488a2.944 2.944 0 0 1-.209.228v-1.076a3.084 3.084 0 0 1-.346.294v1.076c-.266.198-.555.36-.854.495v-1.077c-.158.072-.334.141-.507.201v1.074c-.126.042-.26.084-.394.12v1.493c0 .693.582 1.065 1.134.897l.003.006z" fill="#198038"/>
                    <path d="M288.595 279.841c.068-.06.137-.12.205-.183.212-.213-.095-.804-.385-.825-.041-.003-.104.003-.14.04-.03.03-.173.152-.203.18.272-.217.785.524.523.785v.003z" fill="#0C401C"/>
                    <path d="M298.328 273.364c0 1.481-.8 2.549-2.057 2.939-2.69.833-6.345-1.572-7.381-4.646-.624-1.85-.167-3.715 1.55-4.402 3.16-1.262 7.89 2.375 7.89 6.109h-.002zm-3.433 2.576c2.334.075 3.45-1.896 2.57-4.244-.74-1.982-2.731-3.73-4.787-4.099-2.669-.48-4.173 1.557-3.194 4.174.85 2.27 3.253 4.097 5.411 4.166v.003z" fill="#F3F4F5"/>
                    <path d="M295.943 280.006v-1.074c.173-.06.349-.129.507-.2v1.076c.296-.135.588-.297.854-.495v-1.076c.128-.096.239-.192.346-.294v1.076c.078-.075.143-.15.209-.228v1.488c0 .675-.242 1.544-.746 1.994v.969a5.797 5.797 0 0 1-.427.248v-.968a.859.859 0 0 1-1.083-.555c-.075-.219-.051-.38-.051-1.835.131-.036.265-.078.394-.12l-.003-.006zm.785 1.991c.492-.126.809-.828.824-1.346v-1.05c-.415.372-.935.65-1.454.843v1.013c0 .402.298.624.63.54z" fill="#F1F5F4"/>
                    <path d="M296.101 280.444v1.013c0 .402.298.624.63.54.492-.126.809-.828.824-1.346v-1.05c-.415.372-.935.65-1.454.843zM306.768 291.824c-.758-.44-1.516-.882-2.274-1.32-.797-.533-1.758-.371-2.116.528-2.931 7.161-2.731 6.642-2.731 6.672-.173.393-.636.243-.806.186-14.243-6.282-8.154-3.613-9.718-4.288-.71-.273-1.343-1.145-1.382-1.877v-9.992c-.024-.522.236-1.271.857-1.892.265-.26-.254-1.002-.523-.786-.692.588-1.23 1.599-1.256 2.516v9.986c0 1.245.86 2.378 1.808 2.834.03.015 9.689 4.276 9.718 4.288.899.429 1.842.225 2.188-.645 2.95-7.203 2.734-6.72 2.818-6.81.188-.204.522-.02.564 0l2.268 1.317c-.074-.045-.12-.13-.107-.25.027-.3.45-.62.701-.473l-.009.006z" fill="#198038"/>
                    <path d="M310.084 298.157a.47.47 0 0 0 .436-.303c.05-.138 1.185-3.391-4.083-6.219a.466.466 0 0 0-.63.192c-.06.114-.707.099-.603.159.29.168.68.41.794.47 4.56 2.45 3.66 5.048 3.65 5.072a.467.467 0 0 0 .436.63z" fill="#198038"/>
                    <path d="M288.621 283.598v.648c-.006.297.066.56.191.816.129.252.254.399.418.579 2.069 2.08 7.044 1.832 8.647-.183.272-.342.448-.744.448-1.182v-.68c0 .44-.176.842-.448 1.18-1.603 2.02-6.578 2.265-8.647.187a2.5 2.5 0 0 1-.418-.576c0-.036-.19-.33-.19-.786v-.003zM289.308 271.84c-.904-2.417.233-4.5 2.611-4.5 2.38 0 4.857 1.972 5.722 4.29.904 2.414-.224 4.502-2.617 4.502-2.334 0-4.842-1.956-5.716-4.292z" fill="#F3F4F5"/>
                    <path d="M292.678 267.6c2.056.369 4.044 2.117 4.787 4.1.878 2.338-.227 4.318-2.57 4.243-2.158-.07-4.56-1.896-5.411-4.166-.979-2.611.516-4.654 3.194-4.174v-.003z" fill="#198038"/>
                </g>
            </g>
        </g>
    </g>
</svg>
