<svg width="680" height="424" viewBox="0 0 680 424" xmlns="http://www.w3.org/2000/svg" xmlns:xlink="http://www.w3.org/1999/xlink">
    <defs>
        <path d="M4 0h672a4 4 0 0 1 4 4v420H0V4a4 4 0 0 1 4-4z" id="varnmcpgea"/>
    </defs>
    <g fill="none" fill-rule="evenodd">
        <mask id="7bwj10rmnb" fill="#fff">
            <use xlink:href="#varnmcpgea"/>
        </mask>
        <g mask="url(#7bwj10rmnb)" fill="#F5F8FA" fill-rule="nonzero">
            <path d="M263.046-19.263C234.672 29.38 143.128 44.177 111.25 69.123c-29.171 22.842-44.72 75.666-43.14 117.77 1.563 42.103 33.547 83.98 75.53 87.5 18.269 1.518 36.539-3.88 54.838-2.632 58.539 4 91.153 69.651 142.624 97.815 59.32 32.45 134.925 9.503 189.81-29.984 34.9-25.111 66.327-58.418 77.439-99.965 11.112-41.532-3.308-91.845-41.156-112.25-34.103-18.39-86.04-15.684-99.333-52.073C458.57 49.86 476.69 23.26 480.764-3.52c6.375-41.968-25.548-83.725-66.012-96.552-40.464-12.826-77.53-15.037-107.347 15.172-13.91 14.09-34.39 48.524-44.359 65.637z"/>
        </g>
        <path d="m-586 87.147 102.079-53.39c46.552-24.348 53.935-87.945 14.198-122.309l-70.537-60.999c-16.092-13.917-12.826-39.731 6.225-49.202l127.656-63.461c26.612-13.23 58.54-9.37 81.232 9.82l195.963 165.717c30.99 23.907 27.676 71.65-6.317 91.048l-364.548 208.024c-43.031 24.557-50.53 83.505-15.016 118.053l62.07 60.382 91.573 89.08c24.381 23.716 61.733 27.9 90.756 10.162L82.45 274.255a74.463 74.463 0 0 1 78.414.464l42.266 26.522a74.46 74.46 0 0 0 77.682.905L576.671 125.96c30.009-17.872 30.81-61.047 1.489-80.024-29.228-18.912-28.558-61.901 1.247-79.884l135.322-81.635" stroke="#008354" stroke-width="4" mask="url(#7bwj10rmnb)"/>
        <g mask="url(#7bwj10rmnb)" fill-rule="nonzero">
            <path d="m203.41 236.724 9.439-5.576c5.678-3.296 9.085-5.704 14.762-2.396l9.567 6.124 4.496-1.554v4.71c0 .953-.476 1.906-1.408 2.45l-10.44 6.153a18.208 18.208 0 0 1-18.339-.011l-9.073-5.511a2.792 2.792 0 0 1-1.39-2.203l-.012-4.922 2.41 2.742-.011-.006z" fill="#B7CCC7"/>
            <path d="M240.26 235.77c-6.206 3.618-5.26 3.139-10.44 6.16a18.212 18.212 0 0 1-18.339-.011l-9.073-5.512c-1.877-1.093-1.877-3.828 0-4.92 13.622-7.915 3.123-1.912 10.435-6.156a18.223 18.223 0 0 1 18.344.012c5.14 3.22 2.311 1.24 9.073 5.518 1.878 1.087 1.878 3.827 0 4.914v-.005z" fill="#FCFCFC"/>
            <path d="M237.705 233.806s-.006.04-.017.058c-.128.41-.4.783-.817 1.029-3.836 2.256-4.404 2.647-8.274 4.897a15.776 15.776 0 0 1-15.893-.012l-7.104-4.365c-1.123-.649-1.123-2.286 0-2.946l8.471-5.009a15.799 15.799 0 0 1 15.899.006c4.42 2.583 4.23 2.647 6.9 4.25a1.83 1.83 0 0 1 .835 2.086v.006z" fill="#D4E0DD"/>
            <path d="M221.315 233.624c-1.948 0-3.53-1.59-3.53-3.56V216.53c0-.234.192-.427.424-.427h6.21c.233 0 .424.193.424.427v13.536c0 1.963-1.576 3.559-3.528 3.559z" fill="#B7CCC7"/>
            <path d="M224.42 215.039h-6.21a.427.427 0 0 0-.424.426v4.285c0 1.963 1.575 3.559 3.529 3.559 1.952 0 3.528-1.59 3.528-3.56v-4.284a.427.427 0 0 0-.423-.426z" fill="#F1F5F4"/>
            <path d="M224.542 213.093h-6.21a.427.427 0 0 0-.424.427v4.284c0 1.964 1.576 3.56 3.529 3.56 1.952 0 3.528-1.59 3.528-3.56v-4.284a.427.427 0 0 0-.423-.427z" fill="#FFF"/>
            <path d="M221.315 218.937c9.823 0 17.787-8.033 17.787-17.943 0-9.909-7.964-17.942-17.787-17.942-9.824 0-17.788 8.033-17.788 17.942 0 9.91 7.964 17.943 17.788 17.943z" fill="#00C177"/>
            <path d="M237.167 192.777a18.024 18.024 0 0 0-2.63-2.097c-3.158 4.991-8.685 8.31-14.995 8.31-3.563 0-6.871-1.063-9.653-2.886a17.968 17.968 0 0 0-.817 17.837c3.193 3.08 7.515 4.985 12.283 4.985 9.827 0 17.787-8.036 17.787-17.943 0-2.956-.723-5.744-1.98-8.206h.005z" fill="#009E62"/>
            <path d="M233.39 187.804c.156.952.236 1.929.236 2.928 0 9.912-7.966 17.942-17.787 17.942a17.64 17.64 0 0 1-12.075-4.769c1.385 8.516 8.715 15.015 17.55 15.015 9.827 0 17.788-8.037 17.788-17.942 0-5.208-2.201-9.896-5.713-13.174z" fill="#006F44"/>
            <path d="M233.633 185.279c0 6.861-5.516 10.725-12.318 10.725-6.801 0-12.318-3.864-12.318-10.725s5.517-12.426 12.318-12.426c6.802 0 12.318 5.565 12.318 12.426z" fill="#00C177"/>
            <path d="M233.812 185.28c0-1.725-.347-3.367-.979-4.864-2.26-2.78-5.69-4.553-9.525-4.553-6.802 0-12.319 5.565-12.319 12.427 0 1.402.245 2.676.667 3.821 2.248 2.531 5.811 3.893 9.838 3.893 6.802 0 12.318-3.863 12.318-10.724z" fill="#009E62"/>
            <path d="M223.928 173.151a12.436 12.436 0 0 1 2.422 7.376c0 6.86-5.517 10.724-12.319 10.724-1.216 0-2.392-.128-3.499-.374 2.098 3.332 6.142 5.137 10.789 5.137 6.802 0 12.318-3.863 12.318-10.724 0-5.956-4.16-10.93-9.706-12.139h-.005z" fill="#006F44"/>
            <path d="m251.985 260.035 126.594-71.644c10.605-6.068 16.957-10.496 27.552-4.418l62.482 36.472 8.387-2.869v8.666a5.15 5.15 0 0 1-2.634 4.508l-128.468 72.701a34.386 34.386 0 0 1-34.22-.02l-61.564-35.344a5.145 5.145 0 0 1-2.6-4.056c-.01-4.881-.01-4.247-.03-9.067l4.5 5.052v.02z" fill="#B7CCC7"/>
            <path d="M474.366 222.105c-22.37 12.811-103.987 58.682-128.469 72.71a34.386 34.386 0 0 1-34.22-.02l-61.564-35.344c-3.5-2.012-3.5-7.044 0-9.057 25.412-14.562 114.816-64.891 128.466-72.71a34.388 34.388 0 0 1 34.234.02c65.707 37.82 24.404 14.028 61.563 35.353 3.496 2.003 3.496 7.046 0 9.048h-.01z" fill="#FCFCFC"/>
            <path d="M469.601 218.492s-.01.08-.029.11a3.302 3.302 0 0 1-1.53 1.892c-10.226 5.878-117.2 66.25-124.419 70.386-9.203 5.254-20.467 5.264-29.66-.02l-57.894-33.23c-2.092-1.198-2.092-4.207 0-5.415l124.786-70.597c9.161-5.253 20.502-5.263 29.673.01 8.25 4.76 49.253 28.29 57.504 33.019a3.338 3.338 0 0 1 1.56 3.845h.01z" fill="#D4E0DD"/>
            <path d="M392.835 114.762c.077 2.708 3.002 5.375 4.232 3.805.32-.403.348-.977.29-1.49-.31-2.556-2.537-4.186-3.515-3.905-.213.061-.417.112-.659.393-.232.282-.358.694-.348 1.197z" fill="#C5D1DD"/>
            <path d="M392.786 114.774c.078 2.556 2.663 5.063 4.038 4.036.523-.462.64-1.076.543-1.76-.126-1.138-.688-2.195-1.463-2.98-1.607-1.63-3.166-.936-3.128.715l.01-.01zm5.084 5.908c-.184.11-.377.211-.58.262-1.192.312-2.615-.635-3.497-1.51-2.16-2.164-3.08-5.605-2.16-7.196 1.792-3.079 6.731.876 7.264 5.455.155 1.177-.02 2.335-1.027 2.989z" fill="#F3F4F5"/>
            <path d="M412.251 208.599c-.019-1.892-1.065-66.068-1.094-67.518-3.786-5.444-7.011-11.331-9.742-17.59-.097 5.836-1.385 84.817-1.385 85.139 0 1.076.842 1.931 1.792 2.485 3.621 2.143 10.43.735 10.43-2.516z" fill="#B7CCC7"/>
            <path d="M401.909 116.717s.067.02.087.05c.455.263.9.534 1.336.816.63-.302.988-.966 1.143-1.69.6-2.194-1.278-5.596-3.09-7.005a32.949 32.949 0 0 1-1.52 2.737c-.358.362-1.375-.503-2.77-1.287-1.239-.685-1.074-.454-1.23-.907-1.113.634-2.207 1.268-3.32 1.912v.02c1.258-.664 2.924.363 3.902 1.35 1.307 1.317 2.237 3.078 2.46 4.99.155 1.178-.02 2.336-1.027 2.99v.02c.097-.05 2.111-1.198 2.198-1.258 1.027-.574 1.308-2.938 1.83-2.738z" fill="#D4E0DD"/>
            <path d="M402.703 124.514c2.644 1.66 6.062 14.663 8.464 16.565-.058-3.17-.397-24.465-.446-27.635 0 .322-.126.664-.32.926 0 .02-.019.05-.038.07-.02.02-.029.04-.048.06-.213.302-.736.705-1.066.856-.852.544-2.944.956-4.774.524l-2.499.875c-.154.714 1.356 7.458.717 7.75l.01.01z" fill="#B7CCC7"/>
            <path d="M409.104 111.512c-1.424.533-2.508 1.71-3.622 2.324-.194.112-.736.404-.949.404.087.653.02 1.327-.077 1.65.106 0 2.082.503 4.125-.222.436-.181.95-.402 1.317-.724.465-.373.823-.916.823-1.52 0-.784-.213-1.55-.61-2.234-.048.05-.63.181-1.007.322z" fill="#D4E0DD"/>
            <path d="M418.837 106.18c.571-.323.716-1.148.658-1.852-.097-1.208-.978-2.707-1.956-3.381-.581-.404-1.356-.695-1.937-.363-15.466 8.896-14.003 7.99-14.216 8.313 1.636 1.268 2.915 3.723 3.157 5.353.223 0 .765-.291.949-.402 1.191-.655 2.198-1.791 3.622-2.324 1.81-.685-1.608 1.167 9.732-5.335l-.01-.01z" fill="#B7CCC7"/>
            <path d="M412.261 208.6c0 3.3-6.847 4.63-10.44 2.515-.716-.412-1.336-.956-1.646-1.72 0-.03-.077-.161-.106-.373-.068-.261-.03-.192.029-4.78-4.639 2.123-4.862 6.028-.833 8.333 4.861 2.797 12.24 1.69 15.069-.927.784-.724 1.442-1.69 1.53-2.717.096-.734-.233-1.901-1.104-2.908-.707-.805-1.618-1.349-2.576-1.781.019 1.45.048 2.908.077 4.358z" fill="#FFF"/>
            <path d="M414.334 211.647c-2.828 2.617-10.208 3.734-15.07.926-1.917-1.097-2.846-2.526-2.846-3.955v5.756c0 .413.087.826.252 1.228.435 1.037 1.133 1.882 2.595 2.728 5.103 2.928 13.684 1.69 15.998-1.993.368-.604.61-1.308.61-2.003v-5.645c0 1.136-.697 2.184-1.54 2.958zM424.289 101.56c1.017-.564 1.307-1.943.533-2.909-.272-.342-.727-.292-1.104-.07-.107.06-2.18 1.238-2.712 1.56a10.818 10.818 0 0 1-.097-1.128c-1.133.645-2.237 1.289-3.37 1.942.968.675 1.86 2.165 1.956 3.372.33-.19 4.726-2.717 4.804-2.767h-.01z" fill="#9BB8B1"/>
            <path d="M422.071 102.838c-.116.08-.261.14-.377.22.445 1.108 1.074 2.125 1.956 2.909 1.617.926-.523.04-1.57-3.13h-.009z" fill="#9BB8B1"/>
            <path d="M424.289 101.56c-.736.423-1.472.856-2.218 1.279.436 1.319 1.133 2.536 2.17 3.462 10.313-3.492 19.387-16.102 22.215-27.515-.62-1.418-1.762-2.737-3.157-3.45-1.54-.927-3.787-.846-5.617-.354-8.29 2.245-16.88 14.784-16.163 24.879.727-.434 1.463-.846 2.199-1.269.377-.22.832-.282 1.113.06.756.966.484 2.345-.542 2.92v-.011z" fill="#B7CCC7"/>
            <path d="M426.942 82.298c-4.726 6.068-6.536 13.234-5.936 17.843.165-.101.33-.202.513-.302-.726-10.094 7.873-22.633 16.163-24.878 1.811-.483 4.058-.573 5.617.353v-.02c-1.327-.876-3.04-1.127-4.658-.966-4.435.442-8.958 4.427-11.68 7.96l-.019.01z" fill="#9BB8B1"/>
            <path d="M392.612 111.633c-1.114.252-1.56 1.37-1.56 2.517 0 2.576 2.005 5.565 4.078 6.43 1.85.775 3.108-.322 3.108-2.304 0-3.301-3.244-7.146-5.626-6.643z" fill="#006F44"/>
            <path d="M394.946 110.206c-.814.463-1.618.936-2.431 1.399.03 0 .077.02.107.03 2.42-.513 5.626 3.382 5.626 6.643 0 1.076-.358 1.881-.988 2.274 0 0 1.889-1.077 1.927-1.108 1.26-.805 1.25-3.894 1.947-3.19.504.393 1.007.785 1.51 1.188.117-.09.233-.212.33-.342.416-.574.533-1.148.533-1.852 0-1.912-1.163-4.328-2.886-5.716-.407 1.248-1.027 3.02-1.056 3.06-.31.673-2.198-1.48-4.406-2.224-.155-.05-.194-.05-.213-.172v.01z" fill="#007E4E"/>
            <path d="M392.592 119.977c.107-.07.843-.513.872-.553-2.46-2.416-3.244-6.502-1.356-7.588.136-.08.281-.151.407-.232-18.544-6.3-36.777-5.103-51.52 8.101 16.938 7.377 35.94 9.802 51.597.272zM399.584 112.53c8.455-22.906 4.988-49.222-2.304-72.53-9.888 22.18-8.639 46.948-2.344 70.205.01.121.058.121.213.171 1.027.342 1.85.886 2.799 1.56.455.322 1.569 1.177 1.636.604v-.01zM398.684 119.734c13.587 26.68 31.919 48.287 54.9 64.66-12.416-26.71-29.489-50.318-52.44-68.131-.688-.483-.65 1.63-1.53 2.788-.281.372-.446.422-.92.694l-.01-.01z" fill="#009E62"/>
            <path d="M379.073 59.17c13.335 2.879 25.693 13.053 34.408 23.267 12.948 15.156 21.47 33.634 24.492 49.343.89 4.992.755 4.63 1.113 7.548.078 1.036.204 2.576.204 2.556 0 .1.145.091.145 0-.145-8.745-1.356-15.045-3.941-23.469-3.855-12.459-11.844-27.051-22.022-38.212-9.045-9.842-21.228-19.202-34.37-21.185-.096-.009-.125.132-.019.152h-.01zM410.227 173.212c-13.219-2.848-25.566-12.912-34.406-23.268-12.893-15.085-21.458-33.562-24.492-49.343-.89-4.99-.758-4.628-1.113-7.547-.08-1.037-.202-2.577-.202-2.556 0-.101-.151-.09-.151 0 .151 8.846 1.395 15.146 3.943 23.468 3.874 12.51 11.883 27.092 22.025 38.213 9.014 9.811 21.207 19.192 34.358 21.186.106.008.135-.132.029-.153h.01zM431.726 143.262c-1.665 7.648-4.667 14.733-11.466 18.658-1.985 1.077-3.283 1.6-5.84 2.204-1.21.232-.987.17-1.268.232-2.334.412-5.258.412-5.249.412-.087 0-.097.14 0 .151 16.221 2.425 25.005-9.863 24.918-26.84 0-.09-.136-.101-.146-.01-.31 1.821-.58 3.542-.939 5.203l-.01-.01z" fill="#007E4E"/>
            <path d="M358.883 83.595c4.398-12.882 14.36-17.571 27.86-13.767 4.813 1.329 10.333 4.156 10.227 4.106.087.04.155-.08.077-.131-21.995-14.3-40.642-4.8-40.552 20.51 0 .1.143.1.153 0 .434-3.603 1.031-7.276 2.235-10.718z" fill="#007E4E"/>
            <path d="M373.626 124.786c-4.449-8.917-8.02-20.862-6.998-30.876.394-4.096 1.608-7.015 1.608-6.994.03-.09-.101-.152-.142-.06-2.579 4.88-3.003 10.526-2.618 16.02.708 11.02 6.745 25.925 17.452 37.418.067.07.174-.02.126-.101-3.932-5.334-6.778-10.084-9.428-15.407zM421.79 140.695c-1.21 3.442-2.886 6.561-5.762 8.957-.126.09-.232.21-.358.291-1.966 1.55-4.426 2.506-6.856 2.99-1.618.322-4.116.472-4.01.463-.087 0-.087.14 0 .15 12.638 1.822 19.204-7.78 19.117-20.59 0-.09-.136-.1-.155-.02-.368 1.65-.91 4.67-1.976 7.75v.01zM387.344 80.676c6.004 3.03 9.2 3.15 9.103 3.14.077 0 .116-.09.048-.13-4.561-3.05-8.29-4.328-11.989-4.851-.068-.01-.106.08-.048.13.726.554 2.101 1.319 2.895 1.711h-.01z" fill="#007E4E"/>
            <path d="M307.4 146.804c.09 3.03 3.367 6.009 4.743 4.248.353-.443.383-1.098.323-1.661-.343-2.848-2.842-4.68-3.933-4.368-.243.07-.466.13-.729.443-.263.312-.414.775-.394 1.338h-.01z" fill="#C5D1DD"/>
            <path d="M307.36 146.828c.081 2.857 2.973 5.666 4.52 4.519.587-.524.708-1.209.617-1.973-.152-1.278-.769-2.456-1.638-3.342-1.8-1.82-3.54-1.046-3.488.796h-.011zm5.684 6.611c-.203.131-.426.232-.648.292-1.335.352-2.933-.714-3.914-1.68-2.406-2.426-3.438-6.27-2.406-8.041 2.002-3.442 7.523.986 8.12 6.109.172 1.318-.02 2.606-1.152 3.34v-.02z" fill="#F3F4F5"/>
            <path d="M329.132 251.731c-.03-2.113-1.204-73.878-1.234-75.487-4.227-6.079-7.837-12.671-10.89-19.675-.112 6.521-1.558 94.84-1.558 95.192 0 1.209.93 2.165 2.002 2.779 4.055 2.395 11.66.825 11.66-2.809h.02z" fill="#B7CCC7"/>
            <path d="M317.561 148.99s.061.02.091.05c.506.292 1.002.605 1.487.916.708-.332 1.113-1.086 1.284-1.892.678-2.446-1.415-6.26-3.448-7.83a41.336 41.336 0 0 1-1.689 3.06c-.404.402-1.536-.563-3.094-1.44-1.395-.764-1.214-.502-1.376-1.006h-.01c-1.243.705-2.467 1.42-3.71 2.134v.02c1.405-.745 3.266.403 4.368 1.51 1.456 1.47 2.498 3.442 2.75 5.575.172 1.319-.02 2.607-1.152 3.342v.019c.11-.06 2.356-1.338 2.467-1.408 1.142-.645 1.456-3.291 2.053-3.06l-.02.01z" fill="#D4E0DD"/>
            <path d="M318.443 157.715c2.963 1.852 6.785 16.394 9.465 18.528-.06-3.543-.445-27.354-.495-30.896 0 .362-.141.745-.344 1.037-.01.019-.02.05-.04.07-.02.02-.03.04-.05.06-.244.332-.82.785-1.184.957-.96.613-3.297 1.066-5.35.593l-2.79.976c-.172.805 1.516 8.333.798 8.665l-.01.01z" fill="#B7CCC7"/>
            <path d="M325.601 143.172c-1.577.593-2.8 1.912-4.044 2.597-.213.12-.82.453-1.072.453.1.734.02 1.49-.07 1.841.11 0 2.324.564 4.61-.252.485-.2 1.062-.453 1.466-.815.516-.413.921-1.027.921-1.69a5.031 5.031 0 0 0-.678-2.496c-.06.06-.698.2-1.133.362z" fill="#D4E0DD"/>
            <path d="M336.483 137.214c.637-.363.8-1.289.728-2.074-.11-1.348-1.102-3.029-2.183-3.774 0-.01-.011-.01-.011-.01-.647-.452-1.517-.774-2.154-.413-17.302 9.954-15.653 8.927-15.896 9.29 1.83 1.418 3.255 4.165 3.529 5.988.243 0 .85-.322 1.072-.453 1.335-.735 2.457-2.003 4.045-2.597 2.023-.764-1.79 1.308 10.89-5.968l-.02.01z" fill="#B7CCC7"/>
            <path d="M329.131 251.73c0 3.694-7.655 5.184-11.66 2.808-.799-.463-1.486-1.067-1.84-1.922 0-.03-.081-.182-.122-.423-.07-.292-.04-.221.03-5.343-5.197 2.375-5.44 6.742-.94 9.319 5.44 3.13 13.692 1.892 16.847-1.037.88-.815 1.619-1.892 1.71-3.039.1-.825-.253-2.124-1.234-3.251-.79-.906-1.811-1.51-2.882-1.992.02 1.62.05 3.25.07 4.87l.021.01z" fill="#FFF"/>
            <path d="M331.459 255.142c-3.155 2.929-11.407 4.177-16.848 1.037-2.133-1.228-3.175-2.818-3.175-4.419v6.441c0 .463.091.927.283 1.369.486 1.158 1.265 2.103 2.902 3.05 5.714 3.27 15.31 1.891 17.88-2.235.424-.674.687-1.46.687-2.244h.01v-6.31h-.01c0 1.268-.789 2.435-1.729 3.301v.01zM342.59 132.042c1.133-.634 1.457-2.174.607-3.25h-.01c-.304-.383-.809-.322-1.244-.071-.111.07-2.437 1.388-3.034 1.751-.05-.423-.09-.835-.1-1.268h-.011c-1.264.714-2.508 1.439-3.772 2.164 1.092.755 2.084 2.425 2.184 3.764.365-.212 5.28-3.04 5.37-3.09h.01z" fill="#9BB8B1"/>
            <path d="M340.114 133.472c-.142.09-.294.16-.435.25.496 1.24 1.204 2.376 2.185 3.251 1.81 1.037-.587.05-1.76-3.501h.01z" fill="#9BB8B1"/>
            <path d="M342.592 132.043c-.829.472-1.648.956-2.477 1.429.485 1.469 1.264 2.827 2.416 3.875 11.539-3.906 21.681-18.004 24.836-30.765-.687-1.59-1.961-3.06-3.529-3.866-1.728-1.035-4.247-.945-6.28-.391-9.262 2.505-18.88 16.535-18.07 27.816.809-.483 1.638-.946 2.457-1.42.435-.251.94-.311 1.244.06h.01c.85 1.088.536 2.617-.607 3.262z" fill="#B7CCC7"/>
            <path d="M345.553 110.515c-5.278 6.783-7.301 14.794-6.644 19.956.192-.12.374-.22.576-.331-.808-11.282 8.808-25.31 18.071-27.816 2.023-.544 4.55-.634 6.28.392v-.02c-1.477-.976-3.408-1.268-5.218-1.087-4.944.493-10.011 4.951-13.065 8.906z" fill="#9BB8B1"/>
            <path d="M307.166 143.314c-1.243.283-1.74 1.53-1.74 2.808 0 2.879 2.246 6.23 4.552 7.196 2.062.865 3.489-.353 3.489-2.576 0-3.694-3.63-7.991-6.3-7.428z" fill="#006F44"/>
            <path d="M309.776 141.713c-.91.524-1.81 1.048-2.72 1.57.04.011.07.02.111.041 2.72-.574 6.3 3.784 6.3 7.427 0 1.208-.415 2.104-1.113 2.546 0 0 2.124-1.208 2.164-1.238 1.396-.896 1.386-4.358 2.175-3.572.566.442 1.122.876 1.678 1.328.142-.111.263-.231.375-.383.464-.634.596-1.278.596-2.062 0-2.134-1.295-4.831-3.236-6.39-.445 1.398-1.143 3.38-1.173 3.42-.344.745-2.447-1.65-4.935-2.485-.172-.06-.222-.06-.233-.191l.011-.01z" fill="#007E4E"/>
            <path d="M307.136 152.632c.132-.081.951-.584.981-.614-2.76-2.697-3.63-7.276-1.516-8.484.15-.08.303-.171.454-.261-20.74-7.045-41.127-5.707-57.61 9.057 18.94 8.252 40.187 10.959 57.691.302zM314.964 144.31c9.455-25.603 5.582-55.039-2.579-81.095-11.053 24.808-9.657 52.493-2.619 78.498.02.131.06.131.233.191 1.152.382 2.063.997 3.124 1.741.516.353 1.75 1.31 1.83.675l.01-.01zM313.954 152.37c15.189 29.829 35.686 53.992 61.382 72.298-13.895-29.87-32.976-56.267-58.642-76.183-.768-.543-.728 1.822-1.709 3.12-.323.413-.505.473-1.031.775v-.01z" fill="#009E62"/>
            <path d="M292.03 84.644c14.906 3.21 28.72 14.602 38.467 26.015 14.481 16.947 24.008 37.608 27.384 55.169.992 5.576.85 5.183 1.245 8.443.09 1.158.232 2.88.222 2.859 0 .11.172.1.172 0-.172-9.772-1.517-16.817-4.41-26.247-4.307-13.928-13.246-30.241-24.633-42.72-10.103-11-23.734-21.467-38.417-23.68-.112-.02-.142.14-.03.17v-.01zM326.857 212.172c-14.785-3.19-28.588-14.441-38.467-26.025-14.412-16.867-23.998-37.527-27.385-55.17-.991-5.575-.85-5.182-1.244-8.443-.091-1.157-.232-2.878-.223-2.858 0-.11-.171-.1-.171 0 .171 9.883 1.557 16.937 4.408 26.246 4.329 13.99 13.288 30.292 24.634 42.72 10.072 10.97 23.704 21.468 38.417 23.681.111.02.141-.141.031-.171v.02zM350.894 178.669c-1.85 8.554-5.208 16.475-12.802 20.863-2.225 1.207-3.672 1.79-6.543 2.455-1.356.262-1.113.2-1.416.251-2.609.453-5.886.464-5.865.464-.101 0-.112.15 0 .17 18.131 2.708 27.95-11.03 27.86-30.01 0-.1-.152-.12-.172-.01-.344 2.033-.638 3.955-1.052 5.817h-.01z" fill="#007E4E"/>
            <path d="M269.45 111.957c4.924-14.401 16.057-19.654 31.155-15.397 5.39 1.478 11.549 4.649 11.437 4.588.102.05.173-.09.082-.15-24.594-15.992-45.445-5.364-45.346 22.935 0 .11.163.12.173 0 .486-4.036 1.163-8.142 2.498-11.986v.01z" fill="#007E4E"/>
            <path d="M285.941 158.018c-4.975-9.963-8.97-23.328-7.826-34.529.434-4.579 1.799-7.84 1.79-7.819.04-.1-.112-.162-.163-.07-2.892 5.464-3.367 11.764-2.922 17.923.799 12.317 7.544 28.994 19.507 41.835.07.08.191-.02.131-.11-4.4-5.968-7.574-11.273-10.537-17.23h.02zM339.79 175.802c-1.365 3.844-3.236 7.327-6.452 10.014-.131.1-.253.23-.394.331-2.205 1.742-4.945 2.809-7.665 3.342-1.81.352-4.601.523-4.49.513-.102 0-.111.151 0 .17 14.137 2.034 21.468-8.694 21.377-23.015 0-.1-.151-.12-.172-.02-.404 1.852-1.01 5.213-2.205 8.665zM301.282 108.697c6.704 3.381 10.284 3.522 10.173 3.512.08 0 .121-.1.05-.151-5.096-3.4-9.273-4.83-13.409-5.424-.08-.01-.13.09-.06.14.82.615 2.345 1.47 3.246 1.913v.01z" fill="#007E4E"/>
        </g>
    </g>
</svg>
