<svg xmlns="http://www.w3.org/2000/svg" width="80" height="81" viewBox="0 0 80 81">
    <g fill="none" fill-rule="evenodd">
        <g fill="#333">
            <g>
                <g>
                    <path d="M40 0c22.059 0 40 17.941 40 40S62.059 80 40 80 0 62.059 0 40 17.941 0 40 0zm0 3.333C19.783 3.333 3.333 19.783 3.333 40c0 20.217 16.45 36.667 36.667 36.667 20.217 0 36.667-16.45 36.667-36.667 0-20.217-16.45-36.667-36.667-36.667zm0 44.202c7.975 0 15.32 4.024 19.646 10.767.496.778.27 1.808-.505 2.304-.778.5-1.808.27-2.304-.505-3.712-5.78-10.004-9.233-16.837-9.233s-13.125 3.454-16.833 9.233c-.496.78-1.534 1.005-2.304.505-.78-.496-1-1.53-.505-2.304C24.68 51.559 32.025 47.535 40 47.535zM25 23.333c2.758 0 5 2.242 5 5s-2.242 5-5 5-5-2.242-5-5 2.242-5 5-5zm30 0c2.758 0 5 2.242 5 5s-2.242 5-5 5-5-2.242-5-5 2.242-5 5-5zm-30 3.334c-.921 0-1.667.745-1.667 1.666 0 .921.746 1.667 1.668 1.667.92 0 1.666-.746 1.666-1.667 0-.92-.746-1.666-1.666-1.666zm30 0c-.921 0-1.667.745-1.667 1.666 0 .921.746 1.667 1.666 1.667.922 0 1.668-.746 1.668-1.667 0-.92-.746-1.666-1.668-1.666z" transform="translate(-139 -230) translate(15 196) translate(124 34.5)"/>
                </g>
            </g>
        </g>
    </g>
</svg>
