<svg xmlns="http://www.w3.org/2000/svg" width="24" height="24" viewBox="0 0 24 24">
    <g fill="none" fill-rule="evenodd" opacity=".99">
        <g>
            <g>
                <g>
                    <g>
                        <g>
                            <path stroke="#333" d="M11 0C4.925 0 0 4.925 0 11s4.925 11 11 11 11-4.925 11-11S17.075 0 11 0" transform="translate(-865 -324) translate(765 258) translate(30 30) translate(0 29) translate(71 8)"/>
                            <path fill="#333" d="M11 9.5c-.689 0-1.25.56-1.25 1.251v4.998c0 .693.56 1.251 1.25 1.251.689 0 1.25-.56 1.25-1.251V10.75c0-.694-.56-1.251-1.25-1.251M11 5c-.827 0-1.5.672-1.5 1.5 0 .827.672 1.5 1.5 1.5.827 0 1.5-.672 1.5-1.5 0-.827-.672-1.5-1.5-1.5" transform="translate(-865 -324) translate(765 258) translate(30 30) translate(0 29) translate(71 8)"/>
                        </g>
                    </g>
                </g>
            </g>
        </g>
    </g>
</svg>
